G75*
G70*
%OFA0B0*%
%FSLAX24Y24*%
%IPPOS*%
%LPD*%
%AMOC8*
5,1,8,0,0,1.08239X$1,22.5*
%
%ADD10R,0.1200X0.0300*%
%ADD11R,0.0710X0.0630*%
%ADD12R,0.0630X0.0709*%
%ADD13R,0.0472X0.0217*%
%ADD14R,0.0630X0.0710*%
%ADD15R,0.0591X0.0787*%
%ADD16R,0.0709X0.0630*%
%ADD17R,0.0417X0.0276*%
%ADD18R,0.0800X0.0260*%
%ADD19R,0.2441X0.2126*%
%ADD20R,0.1000X0.0394*%
%ADD21R,0.2126X0.2441*%
%ADD22R,0.0394X0.1000*%
%ADD23R,0.0350X0.0310*%
D10*
X041819Y016790D03*
X041819Y017290D03*
X041819Y017790D03*
X041819Y018290D03*
X044919Y018290D03*
X044919Y017790D03*
X044919Y017290D03*
X044919Y016790D03*
X044919Y024290D03*
X044919Y024790D03*
X044919Y025290D03*
X044919Y025790D03*
X041819Y025790D03*
X041819Y025290D03*
X041819Y024790D03*
X041819Y024290D03*
X041819Y031040D03*
X041819Y031540D03*
X041819Y032040D03*
X041819Y032540D03*
X044919Y032540D03*
X044919Y032040D03*
X044919Y031540D03*
X044919Y031040D03*
X044919Y037790D03*
X044919Y038290D03*
X044919Y038790D03*
X044919Y039290D03*
X041819Y039290D03*
X041819Y038790D03*
X041819Y038290D03*
X041819Y037790D03*
X041819Y043840D03*
X041819Y044340D03*
X041819Y044840D03*
X041819Y045340D03*
X044919Y045340D03*
X044919Y044840D03*
X044919Y044340D03*
X044919Y043840D03*
D11*
X013109Y013349D03*
X013109Y014469D03*
X014559Y015499D03*
X014559Y016619D03*
X022859Y016419D03*
X022859Y015299D03*
X031109Y015169D03*
X031109Y014049D03*
X035109Y013700D03*
X035109Y014820D03*
X036209Y014820D03*
X036209Y013700D03*
X043209Y013649D03*
X043209Y014769D03*
X036209Y021690D03*
X035109Y021690D03*
X035109Y022810D03*
X036209Y022810D03*
X032109Y022549D03*
X032109Y023669D03*
X035109Y029698D03*
X035109Y030818D03*
X036329Y030818D03*
X036329Y029698D03*
X031109Y033549D03*
X031109Y034669D03*
X032109Y036549D03*
X032109Y037669D03*
X032109Y039049D03*
X032109Y040169D03*
X031559Y042999D03*
X031559Y044119D03*
X028619Y042169D03*
X028619Y041049D03*
X027519Y040999D03*
X026419Y040999D03*
X026419Y042119D03*
X027519Y042119D03*
X027759Y039269D03*
X026719Y039269D03*
X025719Y039269D03*
X024769Y039269D03*
X024769Y038149D03*
X025719Y038149D03*
X026719Y038149D03*
X027759Y038149D03*
X028809Y038149D03*
X028809Y039269D03*
X035309Y038820D03*
X036409Y038820D03*
X036409Y037700D03*
X035309Y037700D03*
X021369Y038149D03*
X021369Y039269D03*
X012919Y040849D03*
X011919Y040849D03*
X010969Y040849D03*
X010969Y041969D03*
X011919Y041969D03*
X012919Y041969D03*
X004869Y037650D03*
X004869Y036530D03*
X015409Y027119D03*
X015409Y025999D03*
D12*
X025108Y015208D03*
X026210Y015208D03*
X040859Y020129D03*
X041961Y020129D03*
X041961Y027629D03*
X040859Y027629D03*
X040859Y034229D03*
X041961Y034229D03*
X042261Y041619D03*
X041159Y041619D03*
X041059Y047159D03*
X042161Y047159D03*
X025660Y047209D03*
X024558Y047209D03*
X023260Y047259D03*
X022158Y047259D03*
X046058Y005309D03*
X047160Y005309D03*
D13*
X006931Y031866D03*
X006931Y032240D03*
X006931Y032614D03*
X005907Y032614D03*
X005907Y031866D03*
D14*
X005850Y034599D03*
X004730Y034599D03*
X025099Y016510D03*
X026219Y016510D03*
X029699Y016409D03*
X030819Y016409D03*
X025119Y012799D03*
X023999Y012799D03*
X016319Y013359D03*
X015199Y013359D03*
X030299Y026109D03*
X031419Y026109D03*
X040275Y011001D03*
X041395Y011001D03*
X039169Y009609D03*
X038049Y009609D03*
X032369Y005309D03*
X031249Y005309D03*
D15*
X035119Y016270D03*
X036300Y016270D03*
X036290Y024139D03*
X035109Y024139D03*
X035100Y032179D03*
X036281Y032179D03*
X036281Y040158D03*
X035100Y040158D03*
X035394Y043920D03*
X034212Y043920D03*
D16*
X041149Y014355D03*
X041149Y013253D03*
X045270Y012104D03*
X045270Y011001D03*
D17*
X043697Y011735D03*
X043697Y012109D03*
X043697Y012483D03*
X042674Y012483D03*
X042674Y012109D03*
X042674Y011735D03*
D18*
X020269Y014509D03*
X020269Y015009D03*
X020269Y015509D03*
X020269Y016009D03*
X017849Y016009D03*
X017849Y015509D03*
X017849Y015009D03*
X017849Y014509D03*
D19*
X019175Y011709D03*
D20*
X022149Y010811D03*
X022149Y012607D03*
D21*
X015909Y023343D03*
D22*
X015011Y020369D03*
X016807Y020369D03*
D23*
X032209Y015999D03*
X032209Y015239D03*
X033009Y015619D03*
X032209Y024739D03*
X032209Y025499D03*
X033009Y025119D03*
X032209Y034739D03*
X032209Y035499D03*
X033009Y035119D03*
X031709Y041239D03*
X031709Y041999D03*
X032509Y041619D03*
M02*
