%
M48
M72
T01C0.0236
T02C0.0320
T03C0.0354
T04C0.0394
T05C0.0400
T06C0.0551
T07C0.1181
T08C0.1300
T09C0.1575
%
T01
X10109Y5109
X10109Y7109
X12109Y5109
X10109Y10009
X12109Y10109
X12109Y12109
X10109Y12109
X10209Y14109
X12109Y14109
X14109Y14109
X14109Y12109
X14109Y10109
X16109Y10109
X16109Y12109
X17109Y14109
X19109Y14109
X21109Y13609
X23109Y13609
X25109Y13609
X25109Y14509
X26109Y12109
X26109Y10109
X28109Y9109
X28109Y11109
X30109Y11109
X30109Y9109
X32109Y9109
X32309Y10009
X34109Y9109
X35709Y9109
X37209Y9109
X38680Y11001
X39480Y11001
X40109Y9109
X42109Y9109
X46109Y7109
X48109Y7109
X48109Y5109
X50109Y5109
X50109Y7109
X53609Y9909
X50109Y13109
X48109Y13109
X46609Y13609
X46609Y12109
X46609Y11109
X45109Y14109
X46609Y16289
X46609Y17789
X46609Y19289
X45109Y20289
X46609Y22289
X46609Y23789
X46609Y25289
X46609Y29039
X46609Y30539
X46609Y32039
X46609Y33539
X45109Y34039
X47909Y36009
X46609Y37289
X46609Y38789
X46609Y40289
X45109Y40789
X46609Y43339
X46609Y44839
X46609Y46339
X45109Y46839
X45809Y49109
X44109Y49109
X42109Y49109
X40109Y49109
X40119Y47159
X40119Y46119
X42109Y46109
X40119Y42619
X40119Y41619
X40119Y40619
X41109Y40109
X40119Y36609
X41109Y36109
X40109Y34209
X42109Y33109
X38009Y33109
X38009Y31109
X40109Y29109
X39769Y27609
X39769Y26609
X39769Y25609
X38109Y23109
X40109Y21109
X39909Y20109
X39909Y19109
X39909Y18109
X42109Y19109
X42109Y21109
X42109Y23109
X42109Y29109
X48109Y30109
X48109Y41109
X48109Y43109
X51509Y45309
X50309Y46609
X49109Y47909
X47909Y49109
X45809Y54109
X38109Y49109
X37609Y49909
X38109Y47109
X33359Y44399
X34212Y42753
X30309Y40409
X31109Y38509
X31109Y36109
X32109Y34109
X34109Y31109
X30109Y25109
X28569Y24209
X30109Y21109
X28109Y19109
X28109Y15109
X24109Y10109
X22109Y10109
X19867Y9972
X19867Y9072
X18109Y10109
X12109Y16109
X14807Y18508
X15807Y18508
X16807Y18508
X17607Y18508
X17109Y17109
X19109Y17109
X21109Y17109
X20599Y20739
X20599Y21639
X20599Y22639
X22290Y22178
X21609Y20809
X18926Y21378
X18409Y22509
X22199Y24213
X23699Y27513
X22409Y28609
X22909Y29509
X23609Y30809
X24609Y32109
X25609Y33709
X23009Y34409
X21009Y35009
X21009Y33709
X19109Y33409
X18609Y34609
X18009Y32309
X16309Y27110
X14349Y27110
X12109Y23109
X12109Y21109
X11209Y19609
X10109Y21109
X8959Y27259
X7419Y29259
X7209Y31009
X7609Y32409
X6909Y33209
X8409Y34609
X9709Y34809
X10409Y40009
X13609Y42009
X10609Y46509
X9909Y46909
X8409Y45509
X7709Y44709
X6809Y43509
X4869Y45109
X13009Y49709
X16009Y49809
X18709Y49709
X21009Y49709
X23409Y49709
X25809Y49709
X27809Y49709
X30009Y49709
X30609Y47109
X31609Y46909
X28209Y47209
X23909Y47209
X18709Y47309
X13659Y53859
X30009Y52309
X23809Y37909
X23109Y38009
X25509Y27859
X32109Y21109
X34109Y23109
X34212Y24753
X34212Y16753
X34109Y15109
X37909Y17109
X38109Y15109
X38680Y13253
X39480Y13253
X40380Y13253
X42109Y15109
X29309Y5809
X28109Y7109
X5409Y27509
X54109Y45009
T02
X29609Y43109
X28609Y43109
X27609Y43109
X26609Y43109
X25609Y43109
X24609Y43109
X23609Y43109
X22609Y43109
X21609Y43109
X20609Y43109
X19609Y43109
X18609Y43109
X17609Y43109
X16609Y43109
X15609Y43109
X14609Y43109
X13609Y43109
X12609Y43109
X11609Y43109
X10609Y43109
X10609Y37109
X11609Y37109
X12609Y37109
X13609Y37109
X14609Y37109
X15609Y37109
X16609Y37109
X17609Y37109
X18609Y37109
X19609Y37109
X20609Y37109
X21609Y37109
X22609Y37109
X23609Y37109
X24609Y37109
X25609Y37109
X26609Y37109
X27609Y37109
X28609Y37109
X29609Y37109
X24059Y45709
X22159Y45709
X18609Y46309
X16609Y46309
T03
X7740Y22062
X7740Y20982
X7740Y19902
X7740Y18822
X7740Y17742
X7740Y16662
X7740Y15582
X7740Y14502
X6620Y15042
X6620Y16122
X6620Y17202
X6620Y18282
X6620Y19362
X6620Y20442
X6620Y21522
X17697Y7740
X18777Y7740
X19857Y7740
X20937Y7740
X22017Y7740
X21477Y6620
X20397Y6620
X19317Y6620
X18237Y6620
X37249Y7869
X38329Y7869
X39409Y7869
X40489Y7869
X41569Y7869
X41029Y6749
X39949Y6749
X38869Y6749
X37789Y6749
X51581Y16077
X51581Y17157
X51581Y18237
X51581Y19317
X51581Y20397
X51581Y21477
X51581Y22557
X51581Y23637
X52701Y23097
X52701Y22017
X52701Y20937
X52701Y19857
X52701Y18777
X52701Y17697
X52701Y16617
T04
X29769Y22490
X22409Y27509
X7409Y27509
X29769Y7490
T05
X35909Y51709
X36989Y51709
X38069Y51709
X39149Y51709
X40229Y51709
X39689Y52709
X38609Y52709
X37529Y52709
X36449Y52709
X24029Y51759
X23489Y52759
X22949Y51759
X22409Y52759
X21869Y51759
X20789Y51759
X20249Y52759
X21329Y52759
X19709Y51759
T06
X34219Y41790
X35619Y41790
X37019Y41790
X37519Y36990
X37019Y33790
X35619Y33790
X34219Y33790
X33719Y36990
X33719Y28990
X34219Y25790
X35619Y25790
X37019Y25790
X37519Y28990
X37519Y20990
X37019Y17790
X35619Y17790
X34219Y17790
X31519Y17490
X28019Y17490
X28019Y12490
X31519Y12490
X33719Y12990
X37519Y12990
X33719Y20990
X17909Y25509
X17909Y29509
X12409Y29509
X12409Y25509
T07
X6088Y6078
X29710Y29700
X53332Y6078
X6088Y53322
T08
X16939Y52259
X26799Y52259
X33139Y52209
X42999Y52209
X52141Y26417
X52141Y13297
X44339Y7309
X34479Y7309
X24787Y7180
X14927Y7180
X7180Y11722
X7180Y24842
T09
X53332Y53322
M30
