G75*
G70*
%OFA0B0*%
%FSLAX24Y24*%
%IPPOS*%
%LPD*%
%AMOC8*
5,1,8,0,0,1.08239X$1,22.5*
%
%ADD10C,0.0120*%
%ADD11C,0.0040*%
%ADD12C,0.0050*%
%ADD13C,0.0160*%
%ADD14C,0.0030*%
%ADD15C,0.0010*%
%ADD16C,0.0080*%
%ADD17C,0.0060*%
%ADD18C,0.0400*%
%ADD19C,0.0240*%
%ADD20C,0.0070*%
D10*
X003119Y003109D02*
X003119Y056290D01*
X056300Y056290D01*
X056300Y003109D01*
X003119Y003109D01*
X010409Y025509D02*
X019409Y025509D01*
X019409Y027509D01*
X019409Y029509D01*
X010409Y029509D01*
X010409Y027509D01*
X010409Y025509D01*
X028019Y019740D02*
X028019Y010240D01*
X029769Y010240D01*
X031519Y010240D01*
X031519Y019740D01*
X029769Y019740D01*
X028019Y019740D01*
D11*
X018203Y031179D02*
X018203Y031640D01*
X017973Y031640D01*
X017897Y031563D01*
X017897Y031409D01*
X017973Y031333D01*
X018203Y031333D01*
X018050Y031333D02*
X017897Y031179D01*
X017743Y031179D02*
X017743Y031640D01*
X017436Y031640D01*
X017283Y031563D02*
X017283Y031256D01*
X017206Y031179D01*
X017052Y031179D01*
X016976Y031256D01*
X016976Y031409D01*
X017129Y031409D01*
X016976Y031563D02*
X017052Y031640D01*
X017206Y031640D01*
X017283Y031563D01*
X017590Y031409D02*
X017743Y031409D01*
X017743Y031179D02*
X017436Y031179D01*
X016822Y031179D02*
X016515Y031179D01*
X016669Y031179D02*
X016669Y031640D01*
X016822Y031486D01*
X016362Y031563D02*
X016285Y031640D01*
X016132Y031640D01*
X016055Y031563D01*
X016362Y031256D01*
X016285Y031179D01*
X016132Y031179D01*
X016055Y031256D01*
X016055Y031563D01*
X015901Y031563D02*
X015825Y031640D01*
X015671Y031640D01*
X015595Y031563D01*
X015595Y031486D01*
X015671Y031409D01*
X015595Y031333D01*
X015595Y031256D01*
X015671Y031179D01*
X015825Y031179D01*
X015901Y031256D01*
X015748Y031409D02*
X015671Y031409D01*
X015441Y031256D02*
X015364Y031179D01*
X015211Y031179D01*
X015134Y031256D01*
X015134Y031640D01*
X014981Y031486D02*
X014827Y031640D01*
X014674Y031486D01*
X014674Y031179D01*
X014674Y031409D02*
X014981Y031409D01*
X014981Y031486D02*
X014981Y031179D01*
X015441Y031256D02*
X015441Y031640D01*
X016129Y032048D02*
X016590Y032048D01*
X016590Y032278D01*
X016513Y032355D01*
X016359Y032355D01*
X016283Y032278D01*
X016283Y032048D01*
X016283Y032201D02*
X016129Y032355D01*
X016129Y032508D02*
X016129Y032815D01*
X016129Y032662D02*
X016590Y032662D01*
X016436Y032508D01*
X016359Y032969D02*
X016436Y033122D01*
X016436Y033199D01*
X016359Y033276D01*
X016206Y033276D01*
X016129Y033199D01*
X016129Y033045D01*
X016206Y032969D01*
X016359Y032969D02*
X016590Y032969D01*
X016590Y033276D01*
X017529Y033369D02*
X017990Y033369D01*
X017913Y033215D02*
X017606Y032908D01*
X017529Y032985D01*
X017529Y033139D01*
X017606Y033215D01*
X017913Y033215D01*
X017990Y033139D01*
X017990Y032985D01*
X017913Y032908D01*
X017606Y032908D01*
X017529Y032755D02*
X017529Y032448D01*
X017529Y032601D02*
X017990Y032601D01*
X017836Y032448D01*
X017683Y033369D02*
X017990Y033676D01*
X017759Y033445D02*
X017529Y033676D01*
X016362Y031563D02*
X016362Y031256D01*
X014520Y031409D02*
X014213Y031409D01*
X014060Y031409D02*
X013906Y031486D01*
X013830Y031486D01*
X013753Y031409D01*
X013753Y031256D01*
X013830Y031179D01*
X013983Y031179D01*
X014060Y031256D01*
X014060Y031409D02*
X014060Y031640D01*
X013753Y031640D01*
X013600Y031640D02*
X013600Y031333D01*
X013446Y031179D01*
X013293Y031333D01*
X013293Y031640D01*
X012210Y031113D02*
X012210Y030806D01*
X012133Y030729D01*
X011980Y030729D01*
X011903Y030806D01*
X011750Y030806D02*
X011673Y030729D01*
X011519Y030729D01*
X011443Y030806D01*
X011443Y030959D01*
X011519Y031036D01*
X011596Y031036D01*
X011750Y030959D01*
X011750Y031190D01*
X011443Y031190D01*
X011903Y031113D02*
X011980Y031190D01*
X012133Y031190D01*
X012210Y031113D01*
X012113Y032229D02*
X011806Y032229D01*
X011729Y032306D01*
X011729Y032459D01*
X011806Y032536D01*
X011729Y032690D02*
X011729Y032996D01*
X011729Y032843D02*
X012190Y032843D01*
X012036Y032690D01*
X012113Y032536D02*
X012190Y032459D01*
X012190Y032306D01*
X012113Y032229D01*
X012113Y033150D02*
X012190Y033227D01*
X012190Y033380D01*
X012113Y033457D01*
X012036Y033457D01*
X011959Y033380D01*
X011883Y033457D01*
X011806Y033457D01*
X011729Y033380D01*
X011729Y033227D01*
X011806Y033150D01*
X011959Y033303D02*
X011959Y033380D01*
X012019Y033629D02*
X012019Y034090D01*
X012250Y033859D01*
X011943Y033859D01*
X012403Y033629D02*
X012710Y033629D01*
X012556Y033629D02*
X012556Y034090D01*
X012710Y033936D01*
X012863Y034013D02*
X012940Y034090D01*
X013094Y034090D01*
X013170Y034013D01*
X013170Y033706D01*
X013094Y033629D01*
X012940Y033629D01*
X012863Y033706D01*
X012917Y035129D02*
X012917Y035590D01*
X013070Y035436D01*
X013224Y035206D02*
X013224Y035129D01*
X013301Y035129D01*
X013301Y035206D01*
X013224Y035206D01*
X013070Y035129D02*
X012763Y035129D01*
X012610Y035206D02*
X012533Y035129D01*
X012303Y035129D01*
X012303Y035436D01*
X012150Y035359D02*
X011996Y035359D01*
X012150Y035129D02*
X012150Y035590D01*
X011843Y035590D01*
X012610Y035436D02*
X012610Y035206D01*
X013454Y035206D02*
X013531Y035129D01*
X013684Y035129D01*
X013761Y035206D01*
X013454Y035513D01*
X013454Y035206D01*
X013454Y035513D02*
X013531Y035590D01*
X013684Y035590D01*
X013761Y035513D01*
X013761Y035206D01*
X010690Y034347D02*
X010690Y034041D01*
X010229Y034041D01*
X010229Y033887D02*
X010536Y033887D01*
X010459Y034041D02*
X010459Y034194D01*
X010229Y033887D02*
X010229Y033657D01*
X010306Y033580D01*
X010536Y033580D01*
X010229Y033427D02*
X010229Y033120D01*
X010229Y033273D02*
X010690Y033273D01*
X010536Y033120D01*
X010306Y032966D02*
X010229Y032966D01*
X010229Y032890D01*
X010306Y032890D01*
X010306Y032966D01*
X010306Y032736D02*
X010229Y032659D01*
X010229Y032506D01*
X010306Y032429D01*
X010613Y032736D01*
X010306Y032736D01*
X010613Y032736D02*
X010690Y032659D01*
X010690Y032506D01*
X010613Y032429D01*
X010306Y032429D01*
X010017Y031990D02*
X010017Y031529D01*
X010170Y031529D02*
X009863Y031529D01*
X009710Y031606D02*
X009633Y031529D01*
X009403Y031529D01*
X009403Y031836D01*
X009250Y031759D02*
X009096Y031759D01*
X009250Y031529D02*
X009250Y031990D01*
X008943Y031990D01*
X009710Y031836D02*
X009710Y031606D01*
X010017Y031990D02*
X010170Y031836D01*
X010324Y031606D02*
X010324Y031529D01*
X010401Y031529D01*
X010401Y031606D01*
X010324Y031606D01*
X010554Y031606D02*
X010631Y031529D01*
X010784Y031529D01*
X010861Y031606D01*
X010554Y031913D01*
X010554Y031606D01*
X010554Y031913D02*
X010631Y031990D01*
X010784Y031990D01*
X010861Y031913D01*
X010861Y031606D01*
X012661Y046329D02*
X012892Y046559D01*
X012968Y046483D02*
X012661Y046790D01*
X012968Y046790D02*
X012968Y046329D01*
X013122Y046406D02*
X013199Y046329D01*
X013352Y046329D01*
X013429Y046406D01*
X013122Y046713D01*
X013122Y046406D01*
X013429Y046406D02*
X013429Y046713D01*
X013352Y046790D01*
X013199Y046790D01*
X013122Y046713D01*
X013582Y046329D02*
X013889Y046329D01*
X013736Y046329D02*
X013736Y046790D01*
X013889Y046636D01*
X014731Y046636D02*
X014731Y046329D01*
X014961Y046329D01*
X015038Y046406D01*
X015038Y046636D01*
X015192Y046329D02*
X015499Y046329D01*
X015652Y046329D02*
X015729Y046329D01*
X015729Y046406D01*
X015652Y046406D01*
X015652Y046329D01*
X015882Y046406D02*
X015959Y046329D01*
X016112Y046329D01*
X016189Y046406D01*
X015882Y046713D01*
X015882Y046406D01*
X015882Y046713D02*
X015959Y046790D01*
X016112Y046790D01*
X016189Y046713D01*
X016189Y046406D01*
X015499Y046636D02*
X015345Y046790D01*
X015345Y046329D01*
X015422Y047829D02*
X015729Y047829D01*
X015422Y048136D01*
X015422Y048213D01*
X015499Y048290D01*
X015652Y048290D01*
X015729Y048213D01*
X015882Y048213D02*
X015959Y048290D01*
X016112Y048290D01*
X016189Y048213D01*
X016189Y047906D01*
X016112Y047829D01*
X015959Y047829D01*
X015882Y047906D01*
X015149Y049029D02*
X014919Y049029D01*
X014842Y049106D01*
X014842Y049183D01*
X014919Y049259D01*
X015149Y049259D01*
X015149Y049029D02*
X015149Y049490D01*
X014919Y049490D01*
X014842Y049413D01*
X014842Y049336D01*
X014919Y049259D01*
X014689Y049259D02*
X014612Y049336D01*
X014459Y049336D01*
X014382Y049259D01*
X014382Y049106D01*
X014459Y049029D01*
X014612Y049029D01*
X014689Y049106D01*
X014689Y049259D01*
X014228Y049336D02*
X014075Y049336D01*
X014152Y049413D02*
X014152Y049106D01*
X014075Y049029D01*
X013845Y049106D02*
X013768Y049029D01*
X013845Y049106D02*
X013845Y049413D01*
X013921Y049336D02*
X013768Y049336D01*
X013614Y049259D02*
X013614Y049106D01*
X013538Y049029D01*
X013384Y049029D01*
X013308Y049106D01*
X013308Y049259D01*
X013384Y049336D01*
X013538Y049336D01*
X013614Y049259D01*
X013154Y049336D02*
X013154Y049029D01*
X013001Y049029D02*
X013001Y049259D01*
X012924Y049336D01*
X012847Y049259D01*
X012847Y049029D01*
X013001Y049259D02*
X013077Y049336D01*
X013154Y049336D01*
X013122Y048290D02*
X013275Y048213D01*
X013429Y048059D01*
X013199Y048059D01*
X013122Y047983D01*
X013122Y047906D01*
X013199Y047829D01*
X013352Y047829D01*
X013429Y047906D01*
X013429Y048059D01*
X013582Y048059D02*
X013659Y047983D01*
X013889Y047983D01*
X013736Y047983D02*
X013582Y047829D01*
X013582Y048059D02*
X013582Y048213D01*
X013659Y048290D01*
X013889Y048290D01*
X013889Y047829D01*
X030531Y048529D02*
X030531Y048836D01*
X030531Y048529D02*
X030761Y048529D01*
X030838Y048606D01*
X030838Y048836D01*
X030992Y048529D02*
X031299Y048529D01*
X031452Y048529D02*
X031529Y048529D01*
X031529Y048606D01*
X031452Y048606D01*
X031452Y048529D01*
X031682Y048606D02*
X031759Y048529D01*
X031912Y048529D01*
X031989Y048606D01*
X031682Y048913D01*
X031682Y048606D01*
X031682Y048913D02*
X031759Y048990D01*
X031912Y048990D01*
X031989Y048913D01*
X031989Y048606D01*
X031299Y048836D02*
X031145Y048990D01*
X031145Y048529D01*
X031222Y050029D02*
X031529Y050029D01*
X031375Y050029D02*
X031375Y050490D01*
X031529Y050336D01*
X031682Y050413D02*
X031759Y050490D01*
X031912Y050490D01*
X031989Y050413D01*
X031989Y050106D01*
X031912Y050029D01*
X031759Y050029D01*
X031682Y050106D01*
X031068Y050106D02*
X030992Y050029D01*
X030838Y050029D01*
X030761Y050106D01*
X030761Y050259D01*
X030838Y050336D01*
X030915Y050336D01*
X031068Y050259D01*
X031068Y050490D01*
X030761Y050490D01*
X034843Y050436D02*
X034843Y050129D01*
X035073Y050129D01*
X035150Y050206D01*
X035150Y050436D01*
X035456Y050590D02*
X035456Y050129D01*
X035303Y050129D02*
X035610Y050129D01*
X035763Y050129D02*
X035840Y050129D01*
X035840Y050206D01*
X035763Y050206D01*
X035763Y050129D01*
X035994Y050206D02*
X036070Y050129D01*
X036224Y050129D01*
X036301Y050206D01*
X035994Y050513D01*
X035994Y050206D01*
X036301Y050206D02*
X036301Y050513D01*
X036224Y050590D01*
X036070Y050590D01*
X035994Y050513D01*
X035610Y050436D02*
X035456Y050590D01*
X035456Y049090D02*
X035456Y048629D01*
X035303Y048629D02*
X035610Y048629D01*
X035763Y048706D02*
X035840Y048629D01*
X035994Y048629D01*
X036070Y048706D01*
X036070Y049013D01*
X035994Y049090D01*
X035840Y049090D01*
X035763Y049013D01*
X035610Y048936D02*
X035456Y049090D01*
X035150Y048859D02*
X034919Y048859D01*
X034843Y048783D01*
X034843Y048706D01*
X034919Y048629D01*
X035073Y048629D01*
X035150Y048706D01*
X035150Y048859D01*
X034996Y049013D01*
X034843Y049090D01*
D12*
X034168Y046722D02*
X034170Y046742D01*
X034176Y046760D01*
X034185Y046778D01*
X034197Y046793D01*
X034212Y046805D01*
X034230Y046814D01*
X034248Y046820D01*
X034268Y046822D01*
X034288Y046820D01*
X034306Y046814D01*
X034324Y046805D01*
X034339Y046793D01*
X034351Y046778D01*
X034360Y046760D01*
X034366Y046742D01*
X034368Y046722D01*
X034366Y046702D01*
X034360Y046684D01*
X034351Y046666D01*
X034339Y046651D01*
X034324Y046639D01*
X034306Y046630D01*
X034288Y046624D01*
X034268Y046622D01*
X034248Y046624D01*
X034230Y046630D01*
X034212Y046639D01*
X034197Y046651D01*
X034185Y046666D01*
X034176Y046684D01*
X034170Y046702D01*
X034168Y046722D01*
X036519Y045790D02*
X036519Y043390D01*
X040619Y043390D01*
X040619Y045790D01*
X036519Y045790D01*
X038319Y042590D02*
X032919Y042590D01*
X032919Y036190D01*
X038319Y036190D01*
X038319Y042590D01*
X038319Y034590D02*
X032919Y034590D01*
X032919Y028190D01*
X038319Y028190D01*
X038319Y034590D01*
X038909Y033799D02*
X041309Y033799D01*
X041309Y029699D01*
X038909Y029699D01*
X038909Y033799D01*
X038319Y026590D02*
X032919Y026590D01*
X032919Y020190D01*
X038319Y020190D01*
X038319Y026590D01*
X031678Y027731D02*
X027741Y027731D01*
X027741Y031668D01*
X031678Y031668D01*
X031678Y027731D01*
X027253Y026592D02*
X023985Y026592D01*
X015709Y019009D02*
X013309Y019009D01*
X013309Y014909D01*
X015709Y014909D01*
X015709Y019009D01*
X008056Y008046D02*
X008056Y004109D01*
X004119Y004109D01*
X004119Y008046D01*
X008056Y008046D01*
X014259Y032109D02*
X014261Y032129D01*
X014267Y032147D01*
X014276Y032165D01*
X014288Y032180D01*
X014303Y032192D01*
X014321Y032201D01*
X014339Y032207D01*
X014359Y032209D01*
X014379Y032207D01*
X014397Y032201D01*
X014415Y032192D01*
X014430Y032180D01*
X014442Y032165D01*
X014451Y032147D01*
X014457Y032129D01*
X014459Y032109D01*
X014457Y032089D01*
X014451Y032071D01*
X014442Y032053D01*
X014430Y032038D01*
X014415Y032026D01*
X014397Y032017D01*
X014379Y032011D01*
X014359Y032009D01*
X014339Y032011D01*
X014321Y032017D01*
X014303Y032026D01*
X014288Y032038D01*
X014276Y032053D01*
X014267Y032071D01*
X014261Y032089D01*
X014259Y032109D01*
X006789Y045999D02*
X004389Y045999D01*
X004389Y050099D01*
X006789Y050099D01*
X006789Y045999D01*
X008056Y051353D02*
X004119Y051353D01*
X004119Y055290D01*
X008056Y055290D01*
X008056Y051353D01*
X009209Y052309D02*
X013309Y052309D01*
X013309Y054709D01*
X009209Y054709D01*
X009209Y052309D01*
X032919Y018590D02*
X038319Y018590D01*
X038319Y012190D01*
X032919Y012190D01*
X032919Y018590D01*
X051363Y008046D02*
X051363Y004109D01*
X055300Y004109D01*
X055300Y008046D01*
X051363Y008046D01*
X052629Y046029D02*
X055029Y046029D01*
X055029Y050129D01*
X052629Y050129D01*
X052629Y046029D01*
X050309Y052009D02*
X050309Y054409D01*
X046209Y054409D01*
X046209Y052009D01*
X050309Y052009D01*
D13*
X049159Y053209D02*
X048659Y053209D01*
X048659Y053709D01*
X047909Y053209D01*
X047409Y053209D01*
X047909Y053209D02*
X047909Y052709D01*
X047909Y053209D02*
X048659Y052709D01*
X048659Y053209D01*
X047909Y053209D02*
X047909Y053709D01*
X053329Y048479D02*
X053829Y047729D01*
X053829Y047229D01*
X053829Y047729D02*
X053329Y047729D01*
X053829Y047729D02*
X054329Y048479D01*
X053829Y048479D01*
X053829Y048979D01*
X053829Y048479D02*
X053329Y048479D01*
X053829Y047729D02*
X054329Y047729D01*
X039419Y044590D02*
X038919Y044590D01*
X038169Y044090D01*
X038169Y044590D01*
X037669Y044590D01*
X038169Y044590D02*
X038169Y045090D01*
X038919Y044590D01*
X038919Y044090D01*
X038919Y044590D02*
X038919Y045090D01*
X040109Y032599D02*
X040109Y032099D01*
X040609Y031349D01*
X040109Y031349D01*
X040109Y030849D01*
X040109Y031349D02*
X039609Y031349D01*
X040109Y032099D01*
X040609Y032099D01*
X040109Y032099D02*
X039609Y032099D01*
X015009Y017309D02*
X014509Y017309D01*
X014509Y017809D01*
X014509Y017309D02*
X015009Y016559D01*
X014509Y016559D01*
X014509Y016059D01*
X014509Y016559D02*
X014009Y016559D01*
X014509Y017309D01*
X014009Y017309D01*
X005589Y047199D02*
X005589Y047699D01*
X005089Y048449D01*
X005589Y048449D01*
X005589Y048949D01*
X005589Y048449D02*
X006089Y048449D01*
X005589Y047699D01*
X005089Y047699D01*
X005589Y047699D02*
X006089Y047699D01*
X010859Y053009D02*
X011609Y053509D01*
X012109Y053509D01*
X011609Y053509D02*
X011609Y053009D01*
X011609Y053509D02*
X010859Y054009D01*
X010859Y053509D01*
X010359Y053509D01*
X010859Y053509D02*
X010859Y053009D01*
X011609Y053509D02*
X011609Y054009D01*
D14*
X012041Y055024D02*
X012041Y055394D01*
X012226Y055209D01*
X011979Y055209D01*
X012347Y055086D02*
X012347Y055333D01*
X012409Y055394D01*
X012594Y055394D01*
X012594Y055024D01*
X012409Y055024D01*
X012347Y055086D01*
X012347Y051894D02*
X012347Y051524D01*
X012226Y051524D02*
X012041Y051524D01*
X011979Y051586D01*
X011979Y051648D01*
X012041Y051709D01*
X012226Y051709D01*
X012226Y051524D02*
X012226Y051894D01*
X012041Y051894D01*
X011979Y051833D01*
X011979Y051771D01*
X012041Y051709D01*
X011858Y051648D02*
X011672Y051648D01*
X011611Y051709D01*
X011611Y051833D01*
X011672Y051894D01*
X011858Y051894D01*
X011858Y051524D01*
X011734Y051648D02*
X011611Y051524D01*
X011489Y051586D02*
X011427Y051524D01*
X011304Y051524D01*
X011242Y051586D01*
X011242Y051648D01*
X011304Y051709D01*
X011427Y051709D01*
X011489Y051771D01*
X011489Y051833D01*
X011427Y051894D01*
X011304Y051894D01*
X011242Y051833D01*
X011121Y051833D02*
X011059Y051894D01*
X010936Y051894D01*
X010874Y051833D01*
X010874Y051771D01*
X010936Y051709D01*
X010874Y051648D01*
X010874Y051586D01*
X010936Y051524D01*
X011059Y051524D01*
X011121Y051586D01*
X010997Y051709D02*
X010936Y051709D01*
X010753Y051833D02*
X010691Y051894D01*
X010567Y051894D01*
X010506Y051833D01*
X010506Y051771D01*
X010753Y051524D01*
X010506Y051524D01*
X010384Y051586D02*
X010137Y051833D01*
X010137Y051586D01*
X010199Y051524D01*
X010323Y051524D01*
X010384Y051586D01*
X010384Y051833D01*
X010323Y051894D01*
X010199Y051894D01*
X010137Y051833D01*
X012347Y051894D02*
X012471Y051771D01*
X012594Y051894D01*
X012594Y051524D01*
X007474Y050109D02*
X007413Y050171D01*
X007166Y049924D01*
X007104Y049986D01*
X007104Y050109D01*
X007166Y050171D01*
X007413Y050171D01*
X007474Y050109D02*
X007474Y049986D01*
X007413Y049924D01*
X007166Y049924D01*
X007104Y049803D02*
X007104Y049556D01*
X007351Y049803D01*
X007413Y049803D01*
X007474Y049741D01*
X007474Y049617D01*
X007413Y049556D01*
X007413Y049434D02*
X007351Y049434D01*
X007289Y049373D01*
X007228Y049434D01*
X007166Y049434D01*
X007104Y049373D01*
X007104Y049249D01*
X007166Y049187D01*
X007166Y049066D02*
X007104Y049004D01*
X007104Y048881D01*
X007166Y048819D01*
X007104Y048698D02*
X007228Y048574D01*
X007228Y048636D02*
X007228Y048451D01*
X007228Y048329D02*
X007166Y048329D01*
X007104Y048268D01*
X007104Y048082D01*
X007474Y048082D01*
X007474Y048268D01*
X007413Y048329D01*
X007351Y048329D01*
X007289Y048268D01*
X007289Y048082D01*
X007289Y048268D02*
X007228Y048329D01*
X007104Y048451D02*
X007474Y048451D01*
X007474Y048636D01*
X007413Y048698D01*
X007289Y048698D01*
X007228Y048636D01*
X007351Y048819D02*
X007289Y048881D01*
X007289Y049004D01*
X007228Y049066D01*
X007166Y049066D01*
X007413Y049066D02*
X007474Y049004D01*
X007474Y048881D01*
X007413Y048819D01*
X007351Y048819D01*
X007413Y049187D02*
X007474Y049249D01*
X007474Y049373D01*
X007413Y049434D01*
X007289Y049373D02*
X007289Y049311D01*
X007474Y047961D02*
X007104Y047961D01*
X007104Y047714D02*
X007474Y047714D01*
X007351Y047838D01*
X007474Y047961D01*
X007313Y046929D02*
X007251Y046929D01*
X007189Y046868D01*
X007128Y046929D01*
X007066Y046929D01*
X007004Y046868D01*
X007004Y046744D01*
X007066Y046682D01*
X007066Y046561D02*
X007313Y046561D01*
X007374Y046499D01*
X007374Y046314D01*
X007004Y046314D01*
X007004Y046499D01*
X007066Y046561D01*
X007189Y046806D02*
X007189Y046868D01*
X007313Y046929D02*
X007374Y046868D01*
X007374Y046744D01*
X007313Y046682D01*
X019034Y045972D02*
X019034Y045725D01*
X019034Y045603D02*
X019034Y045356D01*
X019281Y045603D01*
X019343Y045603D01*
X019404Y045542D01*
X019404Y045418D01*
X019343Y045356D01*
X019343Y045235D02*
X019219Y045235D01*
X019158Y045173D01*
X019158Y044988D01*
X019158Y045112D02*
X019034Y045235D01*
X019034Y044988D02*
X019404Y044988D01*
X019404Y045173D01*
X019343Y045235D01*
X019281Y045725D02*
X019404Y045848D01*
X019034Y045848D01*
X020384Y045875D02*
X020754Y045875D01*
X020693Y045753D02*
X020446Y045506D01*
X020384Y045568D01*
X020384Y045692D01*
X020446Y045753D01*
X020693Y045753D01*
X020754Y045692D01*
X020754Y045568D01*
X020693Y045506D01*
X020446Y045506D01*
X020384Y045385D02*
X020384Y045138D01*
X020384Y045262D02*
X020754Y045262D01*
X020631Y045138D01*
X020508Y045875D02*
X020754Y046122D01*
X020569Y045936D02*
X020384Y046122D01*
X030623Y047869D02*
X030870Y047869D01*
X030623Y048115D01*
X030623Y048177D01*
X030685Y048239D01*
X030808Y048239D01*
X030870Y048177D01*
X031115Y048239D02*
X031115Y047869D01*
X031238Y047869D02*
X030992Y047869D01*
X031238Y048115D02*
X031115Y048239D01*
X031360Y048177D02*
X031422Y048239D01*
X031545Y048239D01*
X031607Y048177D01*
X031607Y047930D01*
X031545Y047869D01*
X031422Y047869D01*
X031360Y047930D01*
X032039Y046973D02*
X032039Y046726D01*
X032224Y046726D01*
X032286Y046788D01*
X032286Y046973D01*
X032531Y047096D02*
X032531Y046726D01*
X032654Y046726D02*
X032407Y046726D01*
X032654Y046973D02*
X032531Y047096D01*
X032777Y046788D02*
X032777Y046726D01*
X032838Y046726D01*
X032838Y046788D01*
X032777Y046788D01*
X032960Y046788D02*
X033022Y046726D01*
X033145Y046726D01*
X033207Y046788D01*
X032960Y047035D01*
X032960Y046788D01*
X032960Y047035D02*
X033022Y047096D01*
X033145Y047096D01*
X033207Y047035D01*
X033207Y046788D01*
X033369Y046193D02*
X033554Y046008D01*
X033493Y045946D02*
X033739Y046193D01*
X033739Y045946D02*
X033369Y045946D01*
X033431Y045824D02*
X033369Y045763D01*
X033369Y045639D01*
X033431Y045578D01*
X033678Y045824D01*
X033431Y045824D01*
X033431Y045578D02*
X033678Y045578D01*
X033739Y045639D01*
X033739Y045763D01*
X033678Y045824D01*
X033369Y045456D02*
X033369Y045209D01*
X033369Y045333D02*
X033739Y045333D01*
X033616Y045209D01*
X032289Y045159D02*
X032289Y045344D01*
X032228Y045406D01*
X032104Y045406D01*
X032043Y045344D01*
X032043Y045159D01*
X032043Y045283D02*
X031919Y045406D01*
X031981Y045528D02*
X031919Y045589D01*
X031919Y045713D01*
X031981Y045774D01*
X032104Y045774D01*
X032166Y045713D01*
X032166Y045651D01*
X032104Y045528D01*
X032289Y045528D01*
X032289Y045774D01*
X032228Y045896D02*
X032166Y045896D01*
X032104Y045958D01*
X032104Y046081D01*
X032043Y046143D01*
X031981Y046143D01*
X031919Y046081D01*
X031919Y045958D01*
X031981Y045896D01*
X032043Y045896D01*
X032104Y045958D01*
X032104Y046081D02*
X032166Y046143D01*
X032228Y046143D01*
X032289Y046081D01*
X032289Y045958D01*
X032228Y045896D01*
X032289Y045159D02*
X031919Y045159D01*
X033320Y048015D02*
X033444Y048015D01*
X033505Y048077D01*
X033627Y048139D02*
X033627Y048386D01*
X033505Y048324D02*
X033444Y048386D01*
X033320Y048386D01*
X033259Y048324D01*
X033259Y048262D01*
X033320Y048201D01*
X033259Y048139D01*
X033259Y048077D01*
X033320Y048015D01*
X033320Y048201D02*
X033382Y048201D01*
X033627Y048139D02*
X033750Y048015D01*
X033874Y048139D01*
X033874Y048386D01*
X033995Y048324D02*
X033995Y048262D01*
X034057Y048201D01*
X033995Y048139D01*
X033995Y048077D01*
X034057Y048015D01*
X034180Y048015D01*
X034242Y048077D01*
X034363Y048201D02*
X034610Y048201D01*
X034732Y048201D02*
X034979Y048201D01*
X034979Y048262D02*
X034855Y048386D01*
X034732Y048262D01*
X034732Y048015D01*
X034979Y048015D02*
X034979Y048262D01*
X035100Y048386D02*
X035100Y048077D01*
X035162Y048015D01*
X035285Y048015D01*
X035347Y048077D01*
X035347Y048386D01*
X035468Y048324D02*
X035468Y048262D01*
X035530Y048201D01*
X035468Y048139D01*
X035468Y048077D01*
X035530Y048015D01*
X035654Y048015D01*
X035715Y048077D01*
X035837Y048077D02*
X035898Y048015D01*
X036022Y048015D01*
X036084Y048077D01*
X035837Y048324D01*
X035837Y048077D01*
X036084Y048077D02*
X036084Y048324D01*
X036022Y048386D01*
X035898Y048386D01*
X035837Y048324D01*
X035715Y048324D02*
X035654Y048386D01*
X035530Y048386D01*
X035468Y048324D01*
X035530Y048201D02*
X035592Y048201D01*
X036205Y048015D02*
X036452Y048015D01*
X036329Y048015D02*
X036329Y048386D01*
X036452Y048262D01*
X036573Y048201D02*
X036697Y048201D01*
X036573Y048201D02*
X036573Y048077D01*
X036635Y048015D01*
X036759Y048015D01*
X036820Y048077D01*
X036820Y048324D01*
X036759Y048386D01*
X036635Y048386D01*
X036573Y048324D01*
X036942Y048386D02*
X037189Y048386D01*
X037189Y048015D01*
X036942Y048015D01*
X037065Y048201D02*
X037189Y048201D01*
X037310Y048201D02*
X037372Y048139D01*
X037557Y048139D01*
X037557Y048015D02*
X037557Y048386D01*
X037372Y048386D01*
X037310Y048324D01*
X037310Y048201D01*
X037433Y048139D02*
X037310Y048015D01*
X037333Y046376D02*
X037209Y046376D01*
X037147Y046314D01*
X037394Y046067D01*
X037333Y046005D01*
X037209Y046005D01*
X037147Y046067D01*
X037147Y046314D01*
X037333Y046376D02*
X037394Y046314D01*
X037394Y046067D01*
X037516Y046005D02*
X037763Y046005D01*
X037516Y046252D01*
X037516Y046314D01*
X037577Y046376D01*
X037701Y046376D01*
X037763Y046314D01*
X037884Y046314D02*
X037884Y046252D01*
X037946Y046190D01*
X037884Y046129D01*
X037884Y046067D01*
X037946Y046005D01*
X038069Y046005D01*
X038131Y046067D01*
X038252Y046067D02*
X038314Y046005D01*
X038437Y046005D01*
X038499Y046067D01*
X038621Y046005D02*
X038744Y046129D01*
X038682Y046129D02*
X038868Y046129D01*
X038989Y046129D02*
X038989Y046067D01*
X039051Y046005D01*
X039236Y046005D01*
X039236Y046376D01*
X039051Y046376D01*
X038989Y046314D01*
X038989Y046252D01*
X039051Y046190D01*
X039236Y046190D01*
X039051Y046190D02*
X038989Y046129D01*
X038868Y046005D02*
X038868Y046376D01*
X038682Y046376D01*
X038621Y046314D01*
X038621Y046190D01*
X038682Y046129D01*
X038499Y046252D02*
X038437Y046190D01*
X038314Y046190D01*
X038252Y046129D01*
X038252Y046067D01*
X038252Y046314D02*
X038314Y046376D01*
X038437Y046376D01*
X038499Y046314D01*
X038499Y046252D01*
X038131Y046314D02*
X038069Y046376D01*
X037946Y046376D01*
X037884Y046314D01*
X037946Y046190D02*
X038007Y046190D01*
X038689Y046667D02*
X038751Y046605D01*
X038874Y046605D01*
X038936Y046667D01*
X038936Y046729D01*
X038874Y046790D01*
X038751Y046790D01*
X038689Y046729D01*
X038689Y046667D01*
X038751Y046790D02*
X038689Y046852D01*
X038689Y046914D01*
X038751Y046976D01*
X038874Y046976D01*
X038936Y046914D01*
X038936Y046852D01*
X038874Y046790D01*
X039057Y046667D02*
X039057Y046914D01*
X039119Y046976D01*
X039304Y046976D01*
X039304Y046605D01*
X039119Y046605D01*
X039057Y046667D01*
X039357Y046376D02*
X039357Y046005D01*
X039604Y046005D02*
X039604Y046376D01*
X039481Y046252D01*
X039357Y046376D01*
X036503Y046554D02*
X036318Y046369D01*
X036318Y046615D01*
X036133Y046554D02*
X036503Y046554D01*
X036441Y046247D02*
X036503Y046185D01*
X036503Y046062D01*
X036441Y046000D01*
X036195Y046000D01*
X036133Y046062D01*
X036133Y046185D01*
X036195Y046247D01*
X036133Y045878D02*
X036133Y045755D01*
X036133Y045816D02*
X036503Y045816D01*
X036503Y045755D02*
X036503Y045878D01*
X034119Y048201D02*
X034057Y048201D01*
X033995Y048324D02*
X034057Y048386D01*
X034180Y048386D01*
X034242Y048324D01*
X043101Y046597D02*
X043101Y046350D01*
X043162Y046288D01*
X043286Y046288D01*
X043347Y046350D01*
X043469Y046288D02*
X043716Y046288D01*
X043716Y046659D01*
X043469Y046659D01*
X043347Y046597D02*
X043347Y046535D01*
X043286Y046473D01*
X043101Y046473D01*
X043101Y046597D02*
X043162Y046659D01*
X043286Y046659D01*
X043347Y046597D01*
X043592Y046473D02*
X043716Y046473D01*
X043837Y046350D02*
X043899Y046288D01*
X044022Y046288D01*
X044084Y046350D01*
X044084Y046597D01*
X044022Y046659D01*
X043899Y046659D01*
X043837Y046597D01*
X043769Y046199D02*
X043769Y046137D01*
X044016Y045890D01*
X044016Y045828D01*
X044199Y045828D02*
X044199Y046199D01*
X044384Y046014D01*
X044137Y046014D01*
X044016Y046199D02*
X043769Y046199D01*
X043647Y046075D02*
X043647Y045890D01*
X043586Y045828D01*
X043401Y045828D01*
X043401Y046075D01*
X043279Y046014D02*
X043156Y046014D01*
X043279Y046199D02*
X043032Y046199D01*
X043279Y046199D02*
X043279Y045828D01*
X043317Y040709D02*
X043194Y040709D01*
X043132Y040647D01*
X043379Y040400D01*
X043317Y040338D01*
X043194Y040338D01*
X043132Y040400D01*
X043132Y040647D01*
X043317Y040709D02*
X043379Y040647D01*
X043379Y040400D01*
X043501Y040338D02*
X043747Y040338D01*
X043869Y040338D02*
X044116Y040338D01*
X044116Y040709D01*
X043869Y040709D01*
X043747Y040585D02*
X043624Y040709D01*
X043624Y040338D01*
X043747Y040125D02*
X043747Y039940D01*
X043686Y039878D01*
X043501Y039878D01*
X043501Y040125D01*
X043379Y040064D02*
X043256Y040064D01*
X043379Y040249D02*
X043132Y040249D01*
X043379Y040249D02*
X043379Y039878D01*
X043869Y040187D02*
X044116Y039940D01*
X044116Y039878D01*
X044299Y039878D02*
X044299Y040249D01*
X044484Y040064D01*
X044237Y040064D01*
X044116Y040249D02*
X043869Y040249D01*
X043869Y040187D01*
X043992Y040523D02*
X044116Y040523D01*
X044237Y040400D02*
X044299Y040338D01*
X044422Y040338D01*
X044484Y040400D01*
X044484Y040647D01*
X044422Y040709D01*
X044299Y040709D01*
X044237Y040647D01*
X039163Y037181D02*
X039040Y037304D01*
X039040Y036934D01*
X039063Y036854D02*
X038878Y036854D01*
X038816Y036793D01*
X038816Y036669D01*
X038878Y036608D01*
X039063Y036608D01*
X038940Y036608D02*
X038816Y036484D01*
X038695Y036484D02*
X038448Y036731D01*
X038448Y036793D01*
X038510Y036854D01*
X038633Y036854D01*
X038695Y036793D01*
X038733Y036934D02*
X038795Y036996D01*
X038548Y037243D01*
X038548Y036996D01*
X038610Y036934D01*
X038733Y036934D01*
X038795Y036996D02*
X038795Y037243D01*
X038733Y037304D01*
X038610Y037304D01*
X038548Y037243D01*
X038426Y037304D02*
X038426Y036934D01*
X038426Y037058D02*
X038180Y037304D01*
X038365Y037119D02*
X038180Y036934D01*
X038141Y036854D02*
X038080Y036793D01*
X038326Y036546D01*
X038265Y036484D01*
X038141Y036484D01*
X038080Y036546D01*
X038080Y036793D01*
X038141Y036854D02*
X038265Y036854D01*
X038326Y036793D01*
X038326Y036546D01*
X038448Y036484D02*
X038695Y036484D01*
X039063Y036484D02*
X039063Y036854D01*
X039163Y036934D02*
X038916Y036934D01*
X042832Y034397D02*
X042832Y034335D01*
X042894Y034273D01*
X042832Y034212D01*
X042832Y034150D01*
X042894Y034088D01*
X043017Y034088D01*
X043079Y034150D01*
X043201Y034088D02*
X043447Y034088D01*
X043569Y034088D02*
X043816Y034088D01*
X043816Y034459D01*
X043569Y034459D01*
X043447Y034335D02*
X043324Y034459D01*
X043324Y034088D01*
X043447Y033875D02*
X043447Y033690D01*
X043386Y033628D01*
X043201Y033628D01*
X043201Y033875D01*
X043079Y033814D02*
X042956Y033814D01*
X043079Y033628D02*
X043079Y033999D01*
X042832Y033999D01*
X042894Y034273D02*
X042956Y034273D01*
X043079Y034397D02*
X043017Y034459D01*
X042894Y034459D01*
X042832Y034397D01*
X043569Y033999D02*
X043569Y033937D01*
X043816Y033690D01*
X043816Y033628D01*
X043999Y033628D02*
X043999Y033999D01*
X044184Y033814D01*
X043937Y033814D01*
X043816Y033999D02*
X043569Y033999D01*
X043692Y034273D02*
X043816Y034273D01*
X043937Y034150D02*
X043999Y034088D01*
X044122Y034088D01*
X044184Y034150D01*
X044184Y034397D01*
X044122Y034459D01*
X043999Y034459D01*
X043937Y034397D01*
X041833Y031791D02*
X041586Y031544D01*
X041524Y031606D01*
X041524Y031729D01*
X041586Y031791D01*
X041833Y031791D01*
X041894Y031729D01*
X041894Y031606D01*
X041833Y031544D01*
X041586Y031544D01*
X041524Y031423D02*
X041524Y031176D01*
X041771Y031423D01*
X041833Y031423D01*
X041894Y031361D01*
X041894Y031237D01*
X041833Y031176D01*
X041833Y031054D02*
X041771Y031054D01*
X041709Y030993D01*
X041648Y031054D01*
X041586Y031054D01*
X041524Y030993D01*
X041524Y030869D01*
X041586Y030807D01*
X041586Y030686D02*
X041524Y030624D01*
X041524Y030501D01*
X041586Y030439D01*
X041524Y030318D02*
X041648Y030194D01*
X041648Y030256D02*
X041648Y030071D01*
X041648Y029949D02*
X041586Y029949D01*
X041524Y029888D01*
X041524Y029702D01*
X041894Y029702D01*
X041894Y029888D01*
X041833Y029949D01*
X041771Y029949D01*
X041709Y029888D01*
X041709Y029702D01*
X041709Y029888D02*
X041648Y029949D01*
X041524Y030071D02*
X041894Y030071D01*
X041894Y030256D01*
X041833Y030318D01*
X041709Y030318D01*
X041648Y030256D01*
X041771Y030439D02*
X041709Y030501D01*
X041709Y030624D01*
X041648Y030686D01*
X041586Y030686D01*
X041833Y030686D02*
X041894Y030624D01*
X041894Y030501D01*
X041833Y030439D01*
X041771Y030439D01*
X041833Y030807D02*
X041894Y030869D01*
X041894Y030993D01*
X041833Y031054D01*
X041709Y030993D02*
X041709Y030931D01*
X041894Y029581D02*
X041524Y029581D01*
X041524Y029334D02*
X041894Y029334D01*
X041771Y029458D01*
X041894Y029581D01*
X042894Y027709D02*
X043017Y027709D01*
X043079Y027647D01*
X042894Y027709D02*
X042832Y027647D01*
X042832Y027585D01*
X043079Y027338D01*
X042832Y027338D01*
X042832Y027249D02*
X043079Y027249D01*
X043079Y026878D01*
X043201Y026878D02*
X043201Y027125D01*
X043079Y027064D02*
X042956Y027064D01*
X043201Y026878D02*
X043386Y026878D01*
X043447Y026940D01*
X043447Y027125D01*
X043569Y027187D02*
X043816Y026940D01*
X043816Y026878D01*
X043999Y026878D02*
X043999Y027249D01*
X044184Y027064D01*
X043937Y027064D01*
X043816Y027249D02*
X043569Y027249D01*
X043569Y027187D01*
X043569Y027338D02*
X043816Y027338D01*
X043816Y027709D01*
X043569Y027709D01*
X043447Y027585D02*
X043324Y027709D01*
X043324Y027338D01*
X043447Y027338D02*
X043201Y027338D01*
X043692Y027523D02*
X043816Y027523D01*
X043937Y027400D02*
X043999Y027338D01*
X044122Y027338D01*
X044184Y027400D01*
X044184Y027647D01*
X044122Y027709D01*
X043999Y027709D01*
X043937Y027647D01*
X039234Y029024D02*
X039049Y029024D01*
X038987Y029086D01*
X038987Y029333D01*
X039049Y029394D01*
X039234Y029394D01*
X039234Y029024D01*
X038866Y029086D02*
X038804Y029024D01*
X038681Y029024D01*
X038619Y029086D01*
X038619Y029333D01*
X038681Y029394D01*
X038804Y029394D01*
X038866Y029333D01*
X038866Y029271D01*
X038804Y029209D01*
X038619Y029209D01*
X038466Y027773D02*
X038466Y027403D01*
X038539Y027323D02*
X038354Y027323D01*
X038292Y027262D01*
X038292Y027138D01*
X038354Y027076D01*
X038539Y027076D01*
X038539Y026953D02*
X038539Y027323D01*
X038589Y027403D02*
X038342Y027403D01*
X038221Y027465D02*
X037974Y027712D01*
X037974Y027465D01*
X038036Y027403D01*
X038159Y027403D01*
X038221Y027465D01*
X038221Y027712D01*
X038159Y027773D01*
X038036Y027773D01*
X037974Y027712D01*
X037852Y027773D02*
X037852Y027403D01*
X037852Y027526D02*
X037606Y027773D01*
X037791Y027588D02*
X037606Y027403D01*
X037617Y027323D02*
X037741Y027323D01*
X037802Y027262D01*
X037924Y027262D02*
X037986Y027323D01*
X038109Y027323D01*
X038171Y027262D01*
X037924Y027262D02*
X037924Y027200D01*
X038171Y026953D01*
X037924Y026953D01*
X037802Y026953D02*
X037556Y027200D01*
X037556Y027262D01*
X037617Y027323D01*
X037556Y026953D02*
X037802Y026953D01*
X038292Y026953D02*
X038416Y027076D01*
X038589Y027650D02*
X038466Y027773D01*
X033054Y027782D02*
X032931Y027906D01*
X032931Y027535D01*
X032954Y027456D02*
X032769Y027456D01*
X032707Y027394D01*
X032707Y027270D01*
X032769Y027209D01*
X032954Y027209D01*
X032831Y027209D02*
X032707Y027085D01*
X032586Y027085D02*
X032339Y027332D01*
X032339Y027394D01*
X032401Y027456D01*
X032524Y027456D01*
X032586Y027394D01*
X032624Y027535D02*
X032686Y027597D01*
X032439Y027844D01*
X032439Y027597D01*
X032501Y027535D01*
X032624Y027535D01*
X032686Y027597D02*
X032686Y027844D01*
X032624Y027906D01*
X032501Y027906D01*
X032439Y027844D01*
X032318Y027906D02*
X032318Y027535D01*
X032318Y027659D02*
X032071Y027906D01*
X032256Y027720D02*
X032071Y027535D01*
X032032Y027456D02*
X032156Y027456D01*
X032218Y027394D01*
X032094Y027270D02*
X032032Y027270D01*
X031971Y027209D01*
X031971Y027147D01*
X032032Y027085D01*
X032156Y027085D01*
X032218Y027147D01*
X032339Y027085D02*
X032586Y027085D01*
X032954Y027085D02*
X032954Y027456D01*
X033054Y027535D02*
X032807Y027535D01*
X032032Y027456D02*
X031971Y027394D01*
X031971Y027332D01*
X032032Y027270D01*
X028772Y026203D02*
X028402Y026203D01*
X028587Y026203D02*
X028587Y025956D01*
X028648Y025834D02*
X028402Y025834D01*
X028402Y025649D01*
X028463Y025588D01*
X028648Y025588D01*
X028772Y025343D02*
X028402Y025343D01*
X028402Y025466D02*
X028402Y025219D01*
X028648Y025219D02*
X028772Y025343D01*
X028772Y025956D02*
X028402Y025956D01*
X028439Y021201D02*
X028439Y020831D01*
X028683Y020831D02*
X028930Y020831D01*
X028930Y021201D01*
X029052Y021201D02*
X029176Y021201D01*
X029114Y021201D02*
X029114Y020831D01*
X029176Y020831D02*
X029052Y020831D01*
X029421Y021016D02*
X029544Y021016D01*
X029544Y020831D02*
X029544Y021201D01*
X029297Y021201D01*
X028562Y021201D02*
X028315Y021201D01*
X028194Y021201D02*
X028194Y020831D01*
X027947Y020831D01*
X027825Y020831D02*
X027825Y021201D01*
X027640Y021201D01*
X027578Y021140D01*
X027578Y021016D01*
X027640Y020954D01*
X027825Y020954D01*
X027702Y020954D02*
X027578Y020831D01*
X027457Y020769D02*
X027210Y020769D01*
X027089Y020831D02*
X026965Y020831D01*
X027027Y020831D02*
X027027Y021201D01*
X027089Y021201D02*
X026965Y021201D01*
X026843Y021201D02*
X026596Y020831D01*
X026596Y021201D01*
X026475Y021201D02*
X026290Y021201D01*
X026228Y021140D01*
X026228Y020893D01*
X026290Y020831D01*
X026475Y020831D01*
X026475Y021201D01*
X026843Y021201D02*
X026843Y020831D01*
X026107Y020893D02*
X026045Y020831D01*
X025921Y020831D01*
X025860Y020893D01*
X025860Y021201D01*
X025738Y021140D02*
X025738Y020893D01*
X025676Y020831D01*
X025553Y020831D01*
X025491Y020893D01*
X025491Y021140D02*
X025553Y021201D01*
X025676Y021201D01*
X025738Y021140D01*
X025370Y021201D02*
X025123Y021201D01*
X025246Y021201D02*
X025246Y020831D01*
X025002Y020893D02*
X024940Y020831D01*
X024816Y020831D01*
X024755Y020893D01*
X024755Y021140D01*
X024816Y021201D01*
X024940Y021201D01*
X025002Y021140D01*
X025002Y020893D01*
X024633Y020954D02*
X024448Y020954D01*
X024386Y021016D01*
X024386Y021140D01*
X024448Y021201D01*
X024633Y021201D01*
X024633Y020831D01*
X024510Y020954D02*
X024386Y020831D01*
X023554Y020827D02*
X023493Y020765D01*
X023554Y020827D02*
X023554Y020950D01*
X023493Y021012D01*
X023431Y021012D01*
X023184Y020765D01*
X023184Y021012D01*
X023493Y020644D02*
X023246Y020397D01*
X023184Y020397D01*
X023246Y020275D02*
X023184Y020214D01*
X023184Y020090D01*
X023246Y020028D01*
X023369Y019907D02*
X023369Y019660D01*
X023554Y019845D01*
X023184Y019845D01*
X023184Y019539D02*
X023554Y019292D01*
X023431Y019170D02*
X023184Y019170D01*
X023184Y019292D02*
X023554Y019539D01*
X023431Y019170D02*
X023554Y019047D01*
X023431Y018924D01*
X023184Y018924D01*
X023184Y018802D02*
X023554Y018802D01*
X023431Y018679D01*
X023554Y018555D01*
X023184Y018555D01*
X023234Y018184D02*
X023357Y018184D01*
X023296Y018184D02*
X023296Y017814D01*
X023357Y017814D02*
X023234Y017814D01*
X023112Y017876D02*
X023050Y017814D01*
X022927Y017814D01*
X022865Y017876D01*
X022744Y017876D02*
X022682Y017814D01*
X022558Y017814D01*
X022497Y017876D01*
X022497Y017938D01*
X022558Y017999D01*
X022620Y017999D01*
X022558Y017999D02*
X022497Y018061D01*
X022497Y018123D01*
X022558Y018184D01*
X022682Y018184D01*
X022744Y018123D01*
X022865Y018123D02*
X022927Y018184D01*
X023050Y018184D01*
X023112Y018123D01*
X023112Y017876D01*
X023369Y018924D02*
X023369Y019170D01*
X023493Y020028D02*
X023554Y020090D01*
X023554Y020214D01*
X023493Y020275D01*
X023431Y020275D01*
X023369Y020214D01*
X023308Y020275D01*
X023246Y020275D01*
X023369Y020214D02*
X023369Y020152D01*
X023554Y020397D02*
X023554Y020644D01*
X023493Y020644D01*
X021504Y018415D02*
X021443Y018291D01*
X021319Y018168D01*
X021319Y018353D01*
X021258Y018415D01*
X021196Y018415D01*
X021134Y018353D01*
X021134Y018230D01*
X021196Y018168D01*
X021319Y018168D01*
X021381Y018047D02*
X021134Y017800D01*
X021134Y018047D01*
X021381Y018047D02*
X021443Y018047D01*
X021504Y017985D01*
X021504Y017861D01*
X021443Y017800D01*
X021443Y017678D02*
X021319Y017678D01*
X021258Y017617D01*
X021258Y017431D01*
X021258Y017555D02*
X021134Y017678D01*
X021134Y017431D02*
X021504Y017431D01*
X021504Y017617D01*
X021443Y017678D01*
X020404Y017691D02*
X020034Y017691D01*
X020034Y017568D02*
X020034Y017815D01*
X020281Y017568D02*
X020404Y017691D01*
X020343Y017447D02*
X020096Y017200D01*
X020034Y017261D01*
X020034Y017385D01*
X020096Y017447D01*
X020343Y017447D01*
X020404Y017385D01*
X020404Y017261D01*
X020343Y017200D01*
X020096Y017200D01*
X020096Y017077D02*
X020034Y017077D01*
X020034Y017016D01*
X020096Y017016D01*
X020096Y017077D01*
X020096Y016894D02*
X020034Y016832D01*
X020034Y016709D01*
X020096Y016647D01*
X020343Y016894D01*
X020096Y016894D01*
X020343Y016894D02*
X020404Y016832D01*
X020404Y016709D01*
X020343Y016647D01*
X020096Y016647D01*
X018286Y016731D02*
X018224Y016669D01*
X018286Y016731D02*
X018286Y016854D01*
X018224Y016916D01*
X018162Y016916D01*
X017915Y016669D01*
X017915Y016916D01*
X017977Y017038D02*
X018224Y017284D01*
X017977Y017284D01*
X017915Y017223D01*
X017915Y017099D01*
X017977Y017038D01*
X018224Y017038D01*
X018286Y017099D01*
X018286Y017223D01*
X018224Y017284D01*
X018286Y017406D02*
X017915Y017406D01*
X018039Y017406D02*
X018286Y017653D01*
X018100Y017468D02*
X017915Y017653D01*
X017786Y017668D02*
X017724Y017606D01*
X017662Y017606D01*
X017600Y017668D01*
X017600Y017853D01*
X017477Y017853D02*
X017724Y017853D01*
X017786Y017791D01*
X017786Y017668D01*
X017724Y017484D02*
X017600Y017484D01*
X017539Y017423D01*
X017539Y017238D01*
X017539Y017361D02*
X017415Y017484D01*
X017477Y017606D02*
X017415Y017668D01*
X017415Y017791D01*
X017477Y017853D01*
X017724Y017484D02*
X017786Y017423D01*
X017786Y017238D01*
X017415Y017238D01*
X016494Y017281D02*
X016433Y017219D01*
X016494Y017281D02*
X016494Y017404D01*
X016433Y017466D01*
X016371Y017466D01*
X016309Y017404D01*
X016248Y017466D01*
X016186Y017466D01*
X016124Y017404D01*
X016124Y017281D01*
X016186Y017219D01*
X016186Y017098D02*
X016124Y017036D01*
X016124Y016913D01*
X016186Y016851D01*
X016124Y016729D02*
X016248Y016606D01*
X016248Y016668D02*
X016248Y016483D01*
X016248Y016361D02*
X016186Y016361D01*
X016124Y016299D01*
X016124Y016114D01*
X016494Y016114D01*
X016494Y016299D01*
X016433Y016361D01*
X016371Y016361D01*
X016309Y016299D01*
X016309Y016114D01*
X016309Y016299D02*
X016248Y016361D01*
X016124Y016483D02*
X016494Y016483D01*
X016494Y016668D01*
X016433Y016729D01*
X016309Y016729D01*
X016248Y016668D01*
X016371Y016851D02*
X016309Y016913D01*
X016309Y017036D01*
X016248Y017098D01*
X016186Y017098D01*
X016433Y017098D02*
X016494Y017036D01*
X016494Y016913D01*
X016433Y016851D01*
X016371Y016851D01*
X016309Y017343D02*
X016309Y017404D01*
X016433Y017588D02*
X016494Y017649D01*
X016494Y017773D01*
X016433Y017834D01*
X016371Y017834D01*
X016124Y017588D01*
X016124Y017834D01*
X016186Y017956D02*
X016433Y018203D01*
X016186Y018203D01*
X016124Y018141D01*
X016124Y018018D01*
X016186Y017956D01*
X016433Y017956D01*
X016494Y018018D01*
X016494Y018141D01*
X016433Y018203D01*
X016494Y015993D02*
X016124Y015993D01*
X016124Y015746D02*
X016494Y015746D01*
X016371Y015869D01*
X016494Y015993D01*
X012994Y017588D02*
X012994Y017773D01*
X012933Y017834D01*
X012686Y017834D01*
X012624Y017773D01*
X012624Y017588D01*
X012994Y017588D01*
X012994Y017956D02*
X012809Y017956D01*
X012871Y018079D01*
X012871Y018141D01*
X012809Y018203D01*
X012686Y018203D01*
X012624Y018141D01*
X012624Y018018D01*
X012686Y017956D01*
X012994Y017956D02*
X012994Y018203D01*
X017382Y020455D02*
X017443Y020393D01*
X017567Y020393D01*
X017629Y020455D01*
X017382Y020702D01*
X017382Y020455D01*
X017629Y020455D02*
X017629Y020702D01*
X017567Y020763D01*
X017443Y020763D01*
X017382Y020702D01*
X017750Y020393D02*
X017997Y020393D01*
X018118Y020393D02*
X018242Y020517D01*
X018180Y020517D02*
X018365Y020517D01*
X018365Y020393D02*
X018365Y020763D01*
X018180Y020763D01*
X018118Y020702D01*
X018118Y020578D01*
X018180Y020517D01*
X017997Y020640D02*
X017873Y020763D01*
X017873Y020393D01*
X019064Y020359D02*
X019064Y020236D01*
X019126Y020174D01*
X019373Y020421D01*
X019126Y020421D01*
X019064Y020359D01*
X019064Y020542D02*
X019064Y020604D01*
X019126Y020604D01*
X019126Y020542D01*
X019064Y020542D01*
X019126Y020727D02*
X019373Y020973D01*
X019126Y020973D01*
X019064Y020912D01*
X019064Y020788D01*
X019126Y020727D01*
X019373Y020727D01*
X019434Y020788D01*
X019434Y020912D01*
X019373Y020973D01*
X019311Y021095D02*
X019434Y021218D01*
X019064Y021218D01*
X019064Y021095D02*
X019064Y021342D01*
X019564Y021096D02*
X019626Y021158D01*
X019688Y021158D01*
X019749Y021096D01*
X019749Y020911D01*
X019626Y020911D01*
X019564Y020972D01*
X019564Y021096D01*
X019749Y020911D02*
X019873Y021034D01*
X019934Y021158D01*
X019873Y020789D02*
X019811Y020789D01*
X019749Y020728D01*
X019688Y020789D01*
X019626Y020789D01*
X019564Y020728D01*
X019564Y020604D01*
X019626Y020542D01*
X019564Y020421D02*
X019688Y020298D01*
X019688Y020359D02*
X019688Y020174D01*
X019564Y020174D02*
X019934Y020174D01*
X019934Y020359D01*
X019873Y020421D01*
X019749Y020421D01*
X019688Y020359D01*
X019434Y020359D02*
X019373Y020421D01*
X019434Y020359D02*
X019434Y020236D01*
X019373Y020174D01*
X019126Y020174D01*
X019749Y020666D02*
X019749Y020728D01*
X019873Y020789D02*
X019934Y020728D01*
X019934Y020604D01*
X019873Y020542D01*
X018304Y021893D02*
X018057Y021893D01*
X018180Y021893D02*
X018180Y022263D01*
X018304Y022140D01*
X017935Y022202D02*
X017874Y022263D01*
X017750Y022263D01*
X017689Y022202D01*
X017935Y021955D01*
X017874Y021893D01*
X017750Y021893D01*
X017689Y021955D01*
X017689Y022202D01*
X017567Y022263D02*
X017567Y021893D01*
X017567Y022017D02*
X017382Y021893D01*
X017567Y022017D02*
X017382Y022140D01*
X017935Y022202D02*
X017935Y021955D01*
X013509Y027124D02*
X013509Y027494D01*
X013694Y027309D01*
X013447Y027309D01*
X013326Y027186D02*
X013326Y027124D01*
X013326Y027186D02*
X013079Y027433D01*
X013079Y027494D01*
X013326Y027494D01*
X012958Y027433D02*
X012958Y027186D01*
X012711Y027433D01*
X012711Y027186D01*
X012772Y027124D01*
X012896Y027124D01*
X012958Y027186D01*
X012958Y027433D02*
X012896Y027494D01*
X012772Y027494D01*
X012711Y027433D01*
X012589Y027371D02*
X012589Y027186D01*
X012527Y027124D01*
X012342Y027124D01*
X012342Y027371D01*
X012221Y027309D02*
X012097Y027309D01*
X012221Y027124D02*
X012221Y027494D01*
X011974Y027494D01*
X012455Y028024D02*
X012579Y028148D01*
X012517Y028148D02*
X012702Y028148D01*
X012702Y028024D02*
X012702Y028394D01*
X012517Y028394D01*
X012455Y028333D01*
X012455Y028209D01*
X012517Y028148D01*
X012824Y028024D02*
X013070Y028024D01*
X013070Y028394D01*
X012824Y028394D01*
X012947Y028209D02*
X013070Y028209D01*
X013192Y028394D02*
X013439Y028394D01*
X013315Y028394D02*
X013315Y028024D01*
X013560Y028024D02*
X013807Y028024D01*
X013807Y028394D01*
X013929Y028394D02*
X014053Y028394D01*
X013991Y028394D02*
X013991Y028024D01*
X014053Y028024D02*
X013929Y028024D01*
X014297Y028209D02*
X014421Y028209D01*
X014421Y028024D02*
X014421Y028394D01*
X014174Y028394D01*
X014542Y027962D02*
X014789Y027962D01*
X014972Y028148D02*
X015158Y028148D01*
X015158Y028024D02*
X015158Y028394D01*
X014972Y028394D01*
X014911Y028333D01*
X014911Y028209D01*
X014972Y028148D01*
X015279Y028209D02*
X015526Y028209D01*
X015526Y028271D02*
X015402Y028394D01*
X015279Y028271D01*
X015279Y028024D01*
X015526Y028024D02*
X015526Y028271D01*
X015647Y028333D02*
X015709Y028394D01*
X015832Y028394D01*
X015894Y028333D01*
X015894Y028086D01*
X015832Y028024D01*
X015709Y028024D01*
X015647Y028086D01*
X026107Y021201D02*
X026107Y020893D01*
X027947Y021201D02*
X028194Y021201D01*
X028194Y021016D02*
X028070Y021016D01*
X028796Y015154D02*
X028734Y015093D01*
X028734Y015031D01*
X028796Y014969D01*
X028734Y014908D01*
X028734Y014846D01*
X028796Y014784D01*
X028920Y014784D01*
X028981Y014846D01*
X029103Y014784D02*
X029350Y014784D01*
X029350Y015154D01*
X029103Y015154D01*
X028981Y015093D02*
X028920Y015154D01*
X028796Y015154D01*
X028796Y014969D02*
X028858Y014969D01*
X029226Y014969D02*
X029350Y014969D01*
X029471Y014846D02*
X029533Y014784D01*
X029656Y014784D01*
X029718Y014846D01*
X029718Y015093D01*
X029656Y015154D01*
X029533Y015154D01*
X029471Y015093D01*
X029501Y014554D02*
X029686Y014369D01*
X029439Y014369D01*
X029318Y014246D02*
X029071Y014493D01*
X029071Y014246D01*
X029133Y014184D01*
X029256Y014184D01*
X029318Y014246D01*
X029318Y014493D01*
X029256Y014554D01*
X029133Y014554D01*
X029071Y014493D01*
X028950Y014431D02*
X028950Y014246D01*
X028888Y014184D01*
X028703Y014184D01*
X028703Y014431D01*
X028581Y014369D02*
X028458Y014369D01*
X028581Y014184D02*
X028581Y014554D01*
X028334Y014554D01*
X029501Y014554D02*
X029501Y014184D01*
X029808Y014184D02*
X030055Y014184D01*
X029808Y014431D01*
X029808Y014493D01*
X029869Y014554D01*
X029993Y014554D01*
X030055Y014493D01*
X039491Y014552D02*
X039553Y014614D01*
X039615Y014614D01*
X039676Y014552D01*
X039676Y014367D01*
X039553Y014367D01*
X039491Y014429D01*
X039491Y014552D01*
X039676Y014367D02*
X039800Y014490D01*
X039861Y014614D01*
X039951Y014367D02*
X040321Y014367D01*
X040321Y014614D01*
X040136Y014490D02*
X040136Y014367D01*
X040198Y014245D02*
X039951Y014245D01*
X039951Y014060D01*
X040013Y013999D01*
X040198Y013999D01*
X040260Y013877D02*
X040013Y013630D01*
X039951Y013692D01*
X039951Y013815D01*
X040013Y013877D01*
X040260Y013877D01*
X040321Y013815D01*
X040321Y013692D01*
X040260Y013630D01*
X040013Y013630D01*
X039951Y013509D02*
X039951Y013262D01*
X039951Y013385D02*
X040321Y013385D01*
X040198Y013262D01*
X039800Y013630D02*
X039553Y013630D01*
X039491Y013692D01*
X039491Y013815D01*
X039553Y013877D01*
X039491Y013999D02*
X039491Y014245D01*
X039676Y014122D02*
X039676Y013999D01*
X039800Y013877D02*
X039861Y013815D01*
X039861Y013692D01*
X039800Y013630D01*
X039861Y013999D02*
X039491Y013999D01*
X039861Y013999D02*
X039861Y014245D01*
X042926Y013276D02*
X043173Y013276D01*
X042987Y013461D01*
X042987Y013091D01*
X043294Y013091D02*
X043541Y013091D01*
X043662Y013091D02*
X043909Y013091D01*
X043909Y013461D01*
X043662Y013461D01*
X043541Y013338D02*
X043417Y013461D01*
X043417Y013091D01*
X043786Y013276D02*
X043909Y013276D01*
X044031Y013153D02*
X044092Y013091D01*
X044216Y013091D01*
X044277Y013153D01*
X044277Y013400D01*
X044216Y013461D01*
X044092Y013461D01*
X044031Y013400D01*
X043992Y012221D02*
X044177Y012036D01*
X043931Y012036D01*
X043809Y011913D02*
X043809Y011851D01*
X043809Y011913D02*
X043562Y012160D01*
X043562Y012221D01*
X043809Y012221D01*
X043992Y012221D02*
X043992Y011851D01*
X043441Y011913D02*
X043379Y011851D01*
X043194Y011851D01*
X043194Y012098D01*
X043073Y012036D02*
X042949Y012036D01*
X043073Y011851D02*
X043073Y012221D01*
X042826Y012221D01*
X043441Y012098D02*
X043441Y011913D01*
X043286Y019378D02*
X043101Y019378D01*
X043101Y019625D01*
X042979Y019564D02*
X042856Y019564D01*
X042979Y019378D02*
X042979Y019749D01*
X042732Y019749D01*
X042732Y019838D02*
X042979Y019838D01*
X043101Y019838D02*
X043347Y019838D01*
X043469Y019838D02*
X043716Y019838D01*
X043716Y020209D01*
X043469Y020209D01*
X043347Y020085D02*
X043224Y020209D01*
X043224Y019838D01*
X043347Y019625D02*
X043347Y019440D01*
X043286Y019378D01*
X043469Y019687D02*
X043716Y019440D01*
X043716Y019378D01*
X043899Y019378D02*
X043899Y019749D01*
X044084Y019564D01*
X043837Y019564D01*
X043716Y019749D02*
X043469Y019749D01*
X043469Y019687D01*
X043592Y020023D02*
X043716Y020023D01*
X043837Y019900D02*
X043899Y019838D01*
X044022Y019838D01*
X044084Y019900D01*
X044084Y020147D01*
X044022Y020209D01*
X043899Y020209D01*
X043837Y020147D01*
X042979Y020085D02*
X042856Y020209D01*
X042856Y019838D01*
X040681Y021335D02*
X040311Y021335D01*
X040311Y021212D02*
X040311Y021459D01*
X040373Y021580D02*
X040311Y021642D01*
X040311Y021765D01*
X040373Y021827D01*
X040620Y021827D01*
X040373Y021580D01*
X040620Y021580D01*
X040681Y021642D01*
X040681Y021765D01*
X040620Y021827D01*
X040558Y021949D02*
X040373Y021949D01*
X040311Y022010D01*
X040311Y022195D01*
X040558Y022195D01*
X040496Y022317D02*
X040496Y022440D01*
X040311Y022317D02*
X040681Y022317D01*
X040681Y022564D01*
X040121Y022402D02*
X040060Y022464D01*
X039998Y022464D01*
X039936Y022402D01*
X039936Y022279D01*
X039998Y022217D01*
X040060Y022217D01*
X040121Y022279D01*
X040121Y022402D01*
X039936Y022402D02*
X039875Y022464D01*
X039813Y022464D01*
X039751Y022402D01*
X039751Y022279D01*
X039813Y022217D01*
X039875Y022217D01*
X039936Y022279D01*
X039751Y022095D02*
X039751Y021849D01*
X040121Y021849D01*
X040121Y022095D01*
X039936Y021972D02*
X039936Y021849D01*
X039813Y021727D02*
X039751Y021665D01*
X039751Y021542D01*
X039813Y021480D01*
X040060Y021480D01*
X040121Y021542D01*
X040121Y021665D01*
X040060Y021727D01*
X040558Y021212D02*
X040681Y021335D01*
X052844Y045244D02*
X052844Y045429D01*
X052906Y045491D01*
X053153Y045491D01*
X053214Y045429D01*
X053214Y045244D01*
X052844Y045244D01*
X052844Y045612D02*
X053091Y045859D01*
X053153Y045859D01*
X053214Y045798D01*
X053214Y045674D01*
X053153Y045612D01*
X052844Y045612D02*
X052844Y045859D01*
X052514Y047644D02*
X052144Y047644D01*
X052144Y047891D02*
X052514Y047891D01*
X052391Y047768D01*
X052514Y047644D01*
X052514Y048012D02*
X052514Y048198D01*
X052453Y048259D01*
X052391Y048259D01*
X052329Y048198D01*
X052329Y048012D01*
X052144Y048012D02*
X052514Y048012D01*
X052329Y048198D02*
X052268Y048259D01*
X052206Y048259D01*
X052144Y048198D01*
X052144Y048012D01*
X052144Y048381D02*
X052514Y048381D01*
X052514Y048566D01*
X052453Y048628D01*
X052329Y048628D01*
X052268Y048566D01*
X052268Y048381D01*
X052268Y048504D02*
X052144Y048628D01*
X052206Y048749D02*
X052144Y048811D01*
X052144Y048934D01*
X052206Y048996D01*
X052268Y048996D01*
X052329Y048934D01*
X052329Y048811D01*
X052391Y048749D01*
X052453Y048749D01*
X052514Y048811D01*
X052514Y048934D01*
X052453Y048996D01*
X052453Y049117D02*
X052514Y049179D01*
X052514Y049303D01*
X052453Y049364D01*
X052391Y049364D01*
X052329Y049303D01*
X052268Y049364D01*
X052206Y049364D01*
X052144Y049303D01*
X052144Y049179D01*
X052206Y049117D01*
X052329Y049241D02*
X052329Y049303D01*
X052453Y049486D02*
X052514Y049547D01*
X052514Y049671D01*
X052453Y049733D01*
X052391Y049733D01*
X052144Y049486D01*
X052144Y049733D01*
X052206Y049854D02*
X052144Y049916D01*
X052144Y050039D01*
X052206Y050101D01*
X052453Y050101D01*
X052206Y049854D01*
X052453Y049854D01*
X052514Y049916D01*
X052514Y050039D01*
X052453Y050101D01*
X049772Y051524D02*
X049772Y051894D01*
X049649Y051771D01*
X049525Y051894D01*
X049525Y051524D01*
X049404Y051524D02*
X049219Y051524D01*
X049157Y051586D01*
X049157Y051648D01*
X049219Y051709D01*
X049404Y051709D01*
X049404Y051524D02*
X049404Y051894D01*
X049219Y051894D01*
X049157Y051833D01*
X049157Y051771D01*
X049219Y051709D01*
X049036Y051648D02*
X048851Y051648D01*
X048789Y051709D01*
X048789Y051833D01*
X048851Y051894D01*
X049036Y051894D01*
X049036Y051524D01*
X048912Y051648D02*
X048789Y051524D01*
X048667Y051586D02*
X048606Y051524D01*
X048482Y051524D01*
X048421Y051586D01*
X048421Y051648D01*
X048482Y051709D01*
X048606Y051709D01*
X048667Y051771D01*
X048667Y051833D01*
X048606Y051894D01*
X048482Y051894D01*
X048421Y051833D01*
X048299Y051833D02*
X048237Y051894D01*
X048114Y051894D01*
X048052Y051833D01*
X048052Y051771D01*
X048114Y051709D01*
X048052Y051648D01*
X048052Y051586D01*
X048114Y051524D01*
X048237Y051524D01*
X048299Y051586D01*
X048176Y051709D02*
X048114Y051709D01*
X047931Y051833D02*
X047869Y051894D01*
X047746Y051894D01*
X047684Y051833D01*
X047684Y051771D01*
X047931Y051524D01*
X047684Y051524D01*
X047562Y051586D02*
X047316Y051833D01*
X047316Y051586D01*
X047377Y051524D01*
X047501Y051524D01*
X047562Y051586D01*
X047562Y051833D01*
X047501Y051894D01*
X047377Y051894D01*
X047316Y051833D01*
X046931Y054124D02*
X046746Y054124D01*
X046684Y054186D01*
X046684Y054433D01*
X046746Y054494D01*
X046931Y054494D01*
X046931Y054124D01*
X046562Y054124D02*
X046316Y054124D01*
X046439Y054124D02*
X046439Y054494D01*
X046562Y054371D01*
D15*
X027383Y025300D02*
X027367Y025368D01*
X027367Y025367D02*
X027408Y025379D01*
X027448Y025395D01*
X027486Y025414D01*
X027522Y025437D01*
X027556Y025463D01*
X027588Y025491D01*
X027617Y025523D01*
X027643Y025557D01*
X027665Y025593D01*
X027684Y025631D01*
X027700Y025670D01*
X027712Y025711D01*
X027721Y025753D01*
X027725Y025796D01*
X027726Y025838D01*
X027723Y025881D01*
X027715Y025923D01*
X027705Y025964D01*
X027690Y026004D01*
X027672Y026043D01*
X027650Y026080D01*
X027626Y026114D01*
X027598Y026147D01*
X027567Y026176D01*
X027534Y026203D01*
X027498Y026227D01*
X027461Y026247D01*
X027422Y026264D01*
X027381Y026277D01*
X027340Y026286D01*
X027297Y026292D01*
X027255Y026294D01*
X027212Y026292D01*
X027170Y026286D01*
X027128Y026276D01*
X027088Y026263D01*
X027049Y026246D01*
X027011Y026225D01*
X026976Y026202D01*
X026943Y026175D01*
X026913Y026145D01*
X026885Y026112D01*
X026860Y026078D01*
X026839Y026041D01*
X026821Y026002D01*
X026807Y025962D01*
X026796Y025920D01*
X026728Y025934D01*
X026727Y025934D01*
X026738Y025978D01*
X026753Y026021D01*
X026771Y026062D01*
X026793Y026102D01*
X026818Y026139D01*
X026846Y026175D01*
X026876Y026208D01*
X026910Y026238D01*
X026946Y026266D01*
X026984Y026290D01*
X027024Y026311D01*
X027065Y026329D01*
X027108Y026343D01*
X027152Y026354D01*
X027197Y026361D01*
X027242Y026364D01*
X027287Y026363D01*
X027332Y026359D01*
X027376Y026350D01*
X027420Y026338D01*
X027462Y026323D01*
X027503Y026304D01*
X027543Y026282D01*
X027580Y026256D01*
X027615Y026227D01*
X027647Y026196D01*
X027677Y026162D01*
X027704Y026126D01*
X027728Y026087D01*
X027748Y026047D01*
X027765Y026005D01*
X027778Y025962D01*
X027788Y025917D01*
X027794Y025873D01*
X027796Y025828D01*
X027794Y025782D01*
X027789Y025738D01*
X027780Y025693D01*
X027767Y025650D01*
X027751Y025608D01*
X027731Y025567D01*
X027708Y025528D01*
X027682Y025492D01*
X027652Y025457D01*
X027620Y025425D01*
X027586Y025396D01*
X027549Y025370D01*
X027510Y025347D01*
X027469Y025328D01*
X027427Y025312D01*
X027383Y025299D01*
X027381Y025308D01*
X027425Y025321D01*
X027467Y025337D01*
X027508Y025357D01*
X027547Y025380D01*
X027584Y025406D01*
X027618Y025436D01*
X027650Y025468D01*
X027679Y025503D01*
X027705Y025540D01*
X027727Y025579D01*
X027746Y025620D01*
X027762Y025663D01*
X027774Y025707D01*
X027782Y025751D01*
X027786Y025796D01*
X027787Y025842D01*
X027783Y025887D01*
X027776Y025932D01*
X027765Y025976D01*
X027750Y026018D01*
X027732Y026060D01*
X027710Y026100D01*
X027685Y026137D01*
X027656Y026173D01*
X027625Y026206D01*
X027591Y026236D01*
X027555Y026263D01*
X027517Y026287D01*
X027476Y026307D01*
X027434Y026324D01*
X027391Y026338D01*
X027347Y026347D01*
X027302Y026353D01*
X027256Y026355D01*
X027211Y026353D01*
X027166Y026347D01*
X027122Y026338D01*
X027078Y026324D01*
X027036Y026307D01*
X026996Y026287D01*
X026958Y026263D01*
X026921Y026236D01*
X026887Y026206D01*
X026856Y026173D01*
X026828Y026138D01*
X026802Y026100D01*
X026781Y026060D01*
X026762Y026019D01*
X026747Y025976D01*
X026736Y025932D01*
X026745Y025931D01*
X026756Y025975D01*
X026771Y026018D01*
X026790Y026059D01*
X026812Y026099D01*
X026838Y026136D01*
X026866Y026171D01*
X026898Y026204D01*
X026933Y026234D01*
X026969Y026260D01*
X027008Y026284D01*
X027049Y026303D01*
X027092Y026320D01*
X027136Y026332D01*
X027180Y026340D01*
X027225Y026345D01*
X027271Y026346D01*
X027316Y026343D01*
X027361Y026335D01*
X027405Y026324D01*
X027448Y026309D01*
X027490Y026291D01*
X027529Y026269D01*
X027567Y026243D01*
X027602Y026215D01*
X027635Y026183D01*
X027665Y026149D01*
X027691Y026112D01*
X027715Y026073D01*
X027735Y026032D01*
X027751Y025990D01*
X027764Y025946D01*
X027772Y025901D01*
X027777Y025856D01*
X027778Y025811D01*
X027775Y025765D01*
X027768Y025720D01*
X027757Y025676D01*
X027742Y025633D01*
X027723Y025592D01*
X027701Y025552D01*
X027676Y025514D01*
X027648Y025479D01*
X027616Y025446D01*
X027582Y025416D01*
X027545Y025389D01*
X027506Y025366D01*
X027465Y025346D01*
X027423Y025329D01*
X027379Y025317D01*
X027377Y025326D01*
X027420Y025338D01*
X027462Y025354D01*
X027502Y025374D01*
X027540Y025397D01*
X027576Y025423D01*
X027610Y025453D01*
X027641Y025485D01*
X027669Y025520D01*
X027694Y025557D01*
X027715Y025596D01*
X027734Y025637D01*
X027748Y025679D01*
X027759Y025722D01*
X027766Y025766D01*
X027769Y025811D01*
X027768Y025855D01*
X027763Y025900D01*
X027755Y025944D01*
X027743Y025987D01*
X027727Y026028D01*
X027707Y026069D01*
X027684Y026107D01*
X027658Y026143D01*
X027628Y026177D01*
X027596Y026208D01*
X027562Y026236D01*
X027525Y026261D01*
X027486Y026283D01*
X027445Y026301D01*
X027403Y026316D01*
X027359Y026326D01*
X027315Y026334D01*
X027271Y026337D01*
X027226Y026336D01*
X027182Y026332D01*
X027138Y026323D01*
X027095Y026311D01*
X027053Y026295D01*
X027013Y026276D01*
X026974Y026253D01*
X026938Y026227D01*
X026904Y026198D01*
X026873Y026165D01*
X026845Y026131D01*
X026820Y026094D01*
X026798Y026055D01*
X026780Y026014D01*
X026765Y025972D01*
X026754Y025929D01*
X026763Y025927D01*
X026773Y025970D01*
X026788Y026011D01*
X026806Y026051D01*
X026827Y026089D01*
X026852Y026126D01*
X026880Y026160D01*
X026911Y026191D01*
X026944Y026220D01*
X026979Y026245D01*
X027017Y026268D01*
X027057Y026287D01*
X027098Y026302D01*
X027140Y026314D01*
X027183Y026323D01*
X027227Y026327D01*
X027270Y026328D01*
X027314Y026325D01*
X027358Y026318D01*
X027400Y026307D01*
X027442Y026293D01*
X027482Y026275D01*
X027520Y026253D01*
X027556Y026229D01*
X027590Y026201D01*
X027622Y026171D01*
X027651Y026137D01*
X027676Y026102D01*
X027699Y026064D01*
X027718Y026025D01*
X027734Y025984D01*
X027746Y025942D01*
X027754Y025899D01*
X027759Y025855D01*
X027760Y025811D01*
X027757Y025767D01*
X027750Y025724D01*
X027739Y025681D01*
X027725Y025640D01*
X027707Y025600D01*
X027686Y025561D01*
X027662Y025525D01*
X027634Y025491D01*
X027604Y025459D01*
X027571Y025430D01*
X027535Y025404D01*
X027498Y025382D01*
X027458Y025362D01*
X027417Y025347D01*
X027375Y025334D01*
X027373Y025343D01*
X027415Y025355D01*
X027456Y025371D01*
X027496Y025391D01*
X027533Y025414D01*
X027569Y025440D01*
X027601Y025469D01*
X027632Y025502D01*
X027659Y025536D01*
X027683Y025573D01*
X027703Y025612D01*
X027720Y025652D01*
X027734Y025694D01*
X027743Y025737D01*
X027749Y025781D01*
X027751Y025825D01*
X027749Y025869D01*
X027743Y025912D01*
X027733Y025955D01*
X027720Y025997D01*
X027703Y026038D01*
X027682Y026076D01*
X027658Y026113D01*
X027630Y026148D01*
X027600Y026180D01*
X027567Y026209D01*
X027532Y026235D01*
X027494Y026258D01*
X027455Y026277D01*
X027414Y026293D01*
X027372Y026305D01*
X027328Y026314D01*
X027285Y026318D01*
X027241Y026319D01*
X027197Y026315D01*
X027153Y026308D01*
X027111Y026297D01*
X027069Y026282D01*
X027029Y026264D01*
X026991Y026242D01*
X026955Y026217D01*
X026921Y026189D01*
X026890Y026158D01*
X026862Y026124D01*
X026837Y026088D01*
X026815Y026049D01*
X026797Y026009D01*
X026782Y025968D01*
X026771Y025925D01*
X026780Y025924D01*
X026791Y025965D01*
X026805Y026006D01*
X026823Y026045D01*
X026845Y026083D01*
X026869Y026118D01*
X026897Y026152D01*
X026928Y026182D01*
X026961Y026210D01*
X026996Y026235D01*
X027034Y026256D01*
X027073Y026274D01*
X027113Y026289D01*
X027155Y026299D01*
X027198Y026307D01*
X027241Y026310D01*
X027284Y026309D01*
X027327Y026305D01*
X027369Y026297D01*
X027411Y026285D01*
X027451Y026269D01*
X027490Y026250D01*
X027527Y026228D01*
X027562Y026202D01*
X027594Y026173D01*
X027624Y026142D01*
X027650Y026108D01*
X027674Y026072D01*
X027694Y026034D01*
X027711Y025994D01*
X027725Y025953D01*
X027734Y025911D01*
X027740Y025868D01*
X027742Y025825D01*
X027740Y025782D01*
X027734Y025739D01*
X027725Y025697D01*
X027712Y025656D01*
X027695Y025616D01*
X027675Y025578D01*
X027651Y025541D01*
X027625Y025507D01*
X027595Y025476D01*
X027563Y025447D01*
X027528Y025421D01*
X027491Y025399D01*
X027453Y025380D01*
X027413Y025364D01*
X027371Y025352D01*
X027369Y025361D01*
X027411Y025373D01*
X027451Y025389D01*
X027490Y025408D01*
X027526Y025431D01*
X027561Y025457D01*
X027593Y025486D01*
X027622Y025518D01*
X027648Y025553D01*
X027671Y025589D01*
X027691Y025628D01*
X027707Y025668D01*
X027719Y025710D01*
X027728Y025752D01*
X027732Y025795D01*
X027733Y025838D01*
X027730Y025882D01*
X027722Y025924D01*
X027711Y025966D01*
X027697Y026007D01*
X027678Y026046D01*
X027656Y026083D01*
X027631Y026119D01*
X027603Y026151D01*
X027572Y026181D01*
X027538Y026209D01*
X027502Y026233D01*
X027464Y026253D01*
X027424Y026270D01*
X027383Y026284D01*
X027341Y026293D01*
X027298Y026299D01*
X027255Y026301D01*
X027212Y026299D01*
X027169Y026293D01*
X027126Y026283D01*
X027085Y026269D01*
X027046Y026252D01*
X027008Y026231D01*
X026972Y026207D01*
X026938Y026180D01*
X026907Y026150D01*
X026879Y026117D01*
X026854Y026081D01*
X026833Y026044D01*
X026814Y026005D01*
X026800Y025964D01*
X026789Y025922D01*
X024463Y022406D02*
X024501Y022465D01*
X024501Y022464D02*
X024585Y022412D01*
X024672Y022363D01*
X024761Y022319D01*
X024853Y022280D01*
X024946Y022245D01*
X025040Y022214D01*
X025136Y022188D01*
X025233Y022166D01*
X025332Y022150D01*
X025430Y022138D01*
X025530Y022130D01*
X025629Y022128D01*
X025728Y022130D01*
X025828Y022138D01*
X025926Y022150D01*
X026025Y022166D01*
X026122Y022188D01*
X026218Y022214D01*
X026312Y022245D01*
X026405Y022280D01*
X026497Y022319D01*
X026586Y022363D01*
X026673Y022412D01*
X026757Y022464D01*
X026795Y022406D01*
X026796Y022406D01*
X026708Y022351D01*
X026618Y022302D01*
X026526Y022256D01*
X026432Y022215D01*
X026336Y022179D01*
X026238Y022147D01*
X026138Y022120D01*
X026038Y022098D01*
X025937Y022080D01*
X025834Y022068D01*
X025732Y022060D01*
X025629Y022058D01*
X025526Y022060D01*
X025424Y022068D01*
X025321Y022080D01*
X025220Y022098D01*
X025120Y022120D01*
X025020Y022147D01*
X024922Y022179D01*
X024826Y022215D01*
X024732Y022256D01*
X024640Y022302D01*
X024550Y022351D01*
X024462Y022406D01*
X024467Y022413D01*
X024554Y022359D01*
X024644Y022309D01*
X024736Y022264D01*
X024830Y022223D01*
X024925Y022187D01*
X025023Y022155D01*
X025122Y022129D01*
X025222Y022106D01*
X025323Y022089D01*
X025424Y022077D01*
X025527Y022069D01*
X025629Y022067D01*
X025731Y022069D01*
X025834Y022077D01*
X025935Y022089D01*
X026036Y022106D01*
X026136Y022129D01*
X026235Y022155D01*
X026333Y022187D01*
X026428Y022223D01*
X026522Y022264D01*
X026614Y022309D01*
X026704Y022359D01*
X026791Y022413D01*
X026786Y022421D01*
X026699Y022367D01*
X026610Y022317D01*
X026519Y022272D01*
X026425Y022232D01*
X026330Y022195D01*
X026233Y022164D01*
X026134Y022137D01*
X026035Y022115D01*
X025934Y022098D01*
X025833Y022086D01*
X025731Y022078D01*
X025629Y022076D01*
X025527Y022078D01*
X025425Y022086D01*
X025324Y022098D01*
X025223Y022115D01*
X025124Y022137D01*
X025025Y022164D01*
X024928Y022195D01*
X024833Y022232D01*
X024739Y022272D01*
X024648Y022317D01*
X024559Y022367D01*
X024472Y022421D01*
X024477Y022428D01*
X024563Y022375D01*
X024652Y022325D01*
X024743Y022280D01*
X024836Y022240D01*
X024931Y022204D01*
X025028Y022173D01*
X025126Y022146D01*
X025225Y022124D01*
X025325Y022107D01*
X025426Y022095D01*
X025527Y022087D01*
X025629Y022085D01*
X025731Y022087D01*
X025832Y022095D01*
X025933Y022107D01*
X026033Y022124D01*
X026132Y022146D01*
X026230Y022173D01*
X026327Y022204D01*
X026422Y022240D01*
X026515Y022280D01*
X026606Y022325D01*
X026695Y022375D01*
X026781Y022428D01*
X026776Y022436D01*
X026690Y022382D01*
X026602Y022333D01*
X026511Y022289D01*
X026418Y022248D01*
X026324Y022212D01*
X026227Y022181D01*
X026130Y022155D01*
X026031Y022133D01*
X025931Y022116D01*
X025831Y022104D01*
X025730Y022096D01*
X025629Y022094D01*
X025528Y022096D01*
X025427Y022104D01*
X025327Y022116D01*
X025227Y022133D01*
X025128Y022155D01*
X025031Y022181D01*
X024934Y022212D01*
X024840Y022248D01*
X024747Y022289D01*
X024656Y022333D01*
X024568Y022382D01*
X024482Y022436D01*
X024487Y022443D01*
X024572Y022390D01*
X024660Y022341D01*
X024751Y022297D01*
X024843Y022257D01*
X024937Y022221D01*
X025033Y022190D01*
X025130Y022163D01*
X025229Y022142D01*
X025328Y022125D01*
X025428Y022113D01*
X025528Y022105D01*
X025629Y022103D01*
X025730Y022105D01*
X025830Y022113D01*
X025930Y022125D01*
X026029Y022142D01*
X026128Y022163D01*
X026225Y022190D01*
X026321Y022221D01*
X026415Y022257D01*
X026507Y022297D01*
X026598Y022341D01*
X026686Y022390D01*
X026771Y022443D01*
X026766Y022451D01*
X026681Y022398D01*
X026593Y022349D01*
X026503Y022305D01*
X026411Y022265D01*
X026318Y022229D01*
X026222Y022198D01*
X026126Y022172D01*
X026028Y022151D01*
X025929Y022134D01*
X025829Y022122D01*
X025729Y022114D01*
X025629Y022112D01*
X025529Y022114D01*
X025429Y022122D01*
X025329Y022134D01*
X025230Y022151D01*
X025132Y022172D01*
X025036Y022198D01*
X024940Y022229D01*
X024847Y022265D01*
X024755Y022305D01*
X024665Y022349D01*
X024577Y022398D01*
X024492Y022451D01*
X024497Y022458D01*
X024582Y022406D01*
X024669Y022357D01*
X024758Y022313D01*
X024850Y022273D01*
X024943Y022238D01*
X025038Y022207D01*
X025135Y022181D01*
X025232Y022159D01*
X025331Y022143D01*
X025430Y022131D01*
X025529Y022123D01*
X025629Y022121D01*
X025729Y022123D01*
X025828Y022131D01*
X025927Y022143D01*
X026026Y022159D01*
X026123Y022181D01*
X026220Y022207D01*
X026315Y022238D01*
X026408Y022273D01*
X026500Y022313D01*
X026589Y022357D01*
X026676Y022406D01*
X026761Y022458D01*
X026729Y022425D02*
X026797Y022442D01*
X026796Y022441D02*
X026808Y022401D01*
X026824Y022361D01*
X026843Y022324D01*
X026866Y022288D01*
X026891Y022254D01*
X026920Y022223D01*
X026951Y022195D01*
X026985Y022169D01*
X027020Y022146D01*
X027058Y022127D01*
X027097Y022111D01*
X027138Y022099D01*
X027179Y022091D01*
X027221Y022086D01*
X027263Y022085D01*
X027306Y022088D01*
X027347Y022095D01*
X027388Y022105D01*
X027428Y022119D01*
X027467Y022136D01*
X027504Y022157D01*
X027538Y022181D01*
X027571Y022208D01*
X027601Y022238D01*
X027628Y022271D01*
X027652Y022305D01*
X027673Y022342D01*
X027690Y022381D01*
X027704Y022421D01*
X027714Y022462D01*
X027721Y022503D01*
X027724Y022546D01*
X027723Y022588D01*
X027718Y022630D01*
X027710Y022671D01*
X027698Y022712D01*
X027682Y022751D01*
X027663Y022789D01*
X027640Y022824D01*
X027614Y022858D01*
X027586Y022889D01*
X027555Y022918D01*
X027521Y022943D01*
X027485Y022966D01*
X027448Y022985D01*
X027408Y023001D01*
X027368Y023013D01*
X027384Y023080D01*
X027384Y023081D01*
X027428Y023068D01*
X027470Y023051D01*
X027511Y023031D01*
X027551Y023008D01*
X027588Y022981D01*
X027622Y022951D01*
X027654Y022919D01*
X027684Y022884D01*
X027710Y022846D01*
X027733Y022807D01*
X027752Y022765D01*
X027768Y022722D01*
X027780Y022678D01*
X027788Y022633D01*
X027793Y022588D01*
X027794Y022542D01*
X027791Y022497D01*
X027784Y022452D01*
X027773Y022407D01*
X027759Y022364D01*
X027741Y022322D01*
X027719Y022282D01*
X027694Y022243D01*
X027666Y022207D01*
X027636Y022173D01*
X027602Y022143D01*
X027566Y022115D01*
X027527Y022090D01*
X027487Y022068D01*
X027445Y022050D01*
X027402Y022036D01*
X027357Y022025D01*
X027312Y022018D01*
X027267Y022015D01*
X027221Y022016D01*
X027176Y022021D01*
X027131Y022029D01*
X027087Y022041D01*
X027044Y022057D01*
X027002Y022076D01*
X026963Y022099D01*
X026925Y022125D01*
X026890Y022155D01*
X026858Y022187D01*
X026828Y022221D01*
X026801Y022258D01*
X026778Y022298D01*
X026758Y022339D01*
X026741Y022381D01*
X026728Y022425D01*
X026737Y022427D01*
X026750Y022384D01*
X026766Y022342D01*
X026786Y022302D01*
X026809Y022263D01*
X026835Y022227D01*
X026864Y022193D01*
X026896Y022161D01*
X026931Y022133D01*
X026968Y022107D01*
X027007Y022084D01*
X027047Y022065D01*
X027089Y022050D01*
X027133Y022038D01*
X027177Y022029D01*
X027222Y022025D01*
X027266Y022024D01*
X027311Y022027D01*
X027356Y022034D01*
X027399Y022045D01*
X027442Y022059D01*
X027483Y022076D01*
X027523Y022098D01*
X027561Y022122D01*
X027596Y022149D01*
X027629Y022180D01*
X027660Y022213D01*
X027687Y022248D01*
X027711Y022286D01*
X027733Y022326D01*
X027750Y022367D01*
X027764Y022410D01*
X027775Y022453D01*
X027782Y022498D01*
X027785Y022543D01*
X027784Y022587D01*
X027780Y022632D01*
X027771Y022676D01*
X027759Y022720D01*
X027744Y022762D01*
X027725Y022802D01*
X027702Y022841D01*
X027676Y022878D01*
X027648Y022913D01*
X027616Y022945D01*
X027582Y022974D01*
X027546Y023000D01*
X027507Y023023D01*
X027467Y023043D01*
X027425Y023059D01*
X027382Y023072D01*
X027380Y023063D01*
X027423Y023051D01*
X027465Y023034D01*
X027505Y023014D01*
X027544Y022991D01*
X027580Y022964D01*
X027614Y022934D01*
X027645Y022902D01*
X027674Y022867D01*
X027699Y022829D01*
X027721Y022790D01*
X027739Y022749D01*
X027754Y022706D01*
X027765Y022663D01*
X027772Y022618D01*
X027776Y022573D01*
X027775Y022528D01*
X027771Y022483D01*
X027763Y022439D01*
X027751Y022396D01*
X027735Y022353D01*
X027716Y022313D01*
X027693Y022274D01*
X027667Y022237D01*
X027638Y022202D01*
X027607Y022171D01*
X027572Y022142D01*
X027535Y022116D01*
X027496Y022093D01*
X027456Y022074D01*
X027413Y022058D01*
X027370Y022046D01*
X027326Y022038D01*
X027281Y022034D01*
X027236Y022033D01*
X027191Y022037D01*
X027146Y022044D01*
X027103Y022055D01*
X027060Y022070D01*
X027019Y022088D01*
X026980Y022110D01*
X026942Y022135D01*
X026907Y022164D01*
X026875Y022195D01*
X026845Y022229D01*
X026818Y022265D01*
X026795Y022304D01*
X026775Y022344D01*
X026758Y022386D01*
X026746Y022429D01*
X026754Y022431D01*
X026767Y022389D01*
X026783Y022348D01*
X026803Y022308D01*
X026826Y022270D01*
X026852Y022234D01*
X026881Y022201D01*
X026913Y022170D01*
X026948Y022143D01*
X026984Y022118D01*
X027023Y022096D01*
X027063Y022078D01*
X027105Y022064D01*
X027148Y022053D01*
X027192Y022046D01*
X027236Y022042D01*
X027280Y022043D01*
X027324Y022047D01*
X027368Y022055D01*
X027411Y022067D01*
X027452Y022082D01*
X027492Y022101D01*
X027530Y022123D01*
X027567Y022149D01*
X027600Y022177D01*
X027632Y022209D01*
X027660Y022242D01*
X027686Y022279D01*
X027708Y022317D01*
X027727Y022357D01*
X027742Y022398D01*
X027754Y022441D01*
X027762Y022485D01*
X027766Y022529D01*
X027767Y022573D01*
X027763Y022617D01*
X027756Y022661D01*
X027745Y022704D01*
X027731Y022746D01*
X027713Y022786D01*
X027691Y022825D01*
X027666Y022861D01*
X027639Y022896D01*
X027608Y022928D01*
X027575Y022957D01*
X027539Y022983D01*
X027501Y023006D01*
X027461Y023026D01*
X027420Y023042D01*
X027378Y023055D01*
X027376Y023046D01*
X027418Y023033D01*
X027460Y023017D01*
X027499Y022997D01*
X027537Y022974D01*
X027573Y022947D01*
X027606Y022917D01*
X027636Y022885D01*
X027663Y022850D01*
X027688Y022813D01*
X027709Y022774D01*
X027726Y022733D01*
X027740Y022691D01*
X027750Y022647D01*
X027756Y022603D01*
X027758Y022559D01*
X027756Y022515D01*
X027751Y022471D01*
X027741Y022427D01*
X027728Y022385D01*
X027711Y022344D01*
X027691Y022304D01*
X027667Y022267D01*
X027640Y022232D01*
X027610Y022199D01*
X027577Y022169D01*
X027542Y022142D01*
X027505Y022118D01*
X027465Y022098D01*
X027424Y022081D01*
X027382Y022068D01*
X027338Y022058D01*
X027294Y022053D01*
X027250Y022051D01*
X027206Y022053D01*
X027162Y022059D01*
X027118Y022069D01*
X027076Y022083D01*
X027035Y022100D01*
X026996Y022121D01*
X026959Y022146D01*
X026924Y022173D01*
X026892Y022203D01*
X026862Y022236D01*
X026835Y022272D01*
X026812Y022310D01*
X026792Y022349D01*
X026776Y022391D01*
X026763Y022433D01*
X026772Y022435D01*
X026784Y022394D01*
X026800Y022353D01*
X026820Y022314D01*
X026843Y022277D01*
X026869Y022242D01*
X026898Y022210D01*
X026930Y022180D01*
X026964Y022153D01*
X027001Y022129D01*
X027039Y022108D01*
X027079Y022091D01*
X027121Y022078D01*
X027163Y022068D01*
X027206Y022062D01*
X027250Y022060D01*
X027294Y022062D01*
X027337Y022067D01*
X027379Y022076D01*
X027421Y022089D01*
X027461Y022106D01*
X027500Y022126D01*
X027537Y022149D01*
X027572Y022176D01*
X027604Y022205D01*
X027633Y022237D01*
X027660Y022272D01*
X027683Y022309D01*
X027703Y022348D01*
X027720Y022388D01*
X027733Y022430D01*
X027742Y022472D01*
X027747Y022515D01*
X027749Y022559D01*
X027747Y022603D01*
X027741Y022646D01*
X027731Y022688D01*
X027718Y022730D01*
X027701Y022770D01*
X027680Y022808D01*
X027656Y022845D01*
X027629Y022879D01*
X027599Y022911D01*
X027567Y022940D01*
X027532Y022966D01*
X027495Y022989D01*
X027456Y023009D01*
X027415Y023025D01*
X027374Y023037D01*
X027372Y023028D01*
X027413Y023016D01*
X027452Y023000D01*
X027491Y022981D01*
X027527Y022959D01*
X027561Y022933D01*
X027593Y022904D01*
X027622Y022873D01*
X027649Y022840D01*
X027672Y022804D01*
X027692Y022766D01*
X027709Y022727D01*
X027722Y022686D01*
X027732Y022644D01*
X027738Y022602D01*
X027740Y022559D01*
X027738Y022516D01*
X027733Y022474D01*
X027724Y022432D01*
X027711Y022391D01*
X027695Y022351D01*
X027675Y022313D01*
X027652Y022277D01*
X027626Y022243D01*
X027597Y022212D01*
X027566Y022183D01*
X027532Y022157D01*
X027496Y022134D01*
X027458Y022114D01*
X027418Y022098D01*
X027377Y022085D01*
X027335Y022076D01*
X027293Y022071D01*
X027250Y022069D01*
X027207Y022071D01*
X027165Y022077D01*
X027123Y022087D01*
X027082Y022100D01*
X027043Y022117D01*
X027005Y022137D01*
X026969Y022160D01*
X026936Y022187D01*
X026905Y022216D01*
X026876Y022248D01*
X026850Y022282D01*
X026828Y022318D01*
X026809Y022357D01*
X026793Y022396D01*
X026781Y022437D01*
X026789Y022440D01*
X026802Y022398D01*
X026818Y022359D01*
X026837Y022320D01*
X026860Y022284D01*
X026886Y022250D01*
X026915Y022218D01*
X026946Y022189D01*
X026981Y022163D01*
X027017Y022140D01*
X027055Y022121D01*
X027095Y022105D01*
X027136Y022093D01*
X027178Y022084D01*
X027221Y022079D01*
X027264Y022078D01*
X027306Y022081D01*
X027349Y022088D01*
X027390Y022098D01*
X027431Y022112D01*
X027470Y022130D01*
X027507Y022151D01*
X027543Y022176D01*
X027575Y022203D01*
X027606Y022234D01*
X027633Y022266D01*
X027658Y022302D01*
X027679Y022339D01*
X027697Y022378D01*
X027711Y022419D01*
X027721Y022460D01*
X027728Y022503D01*
X027731Y022545D01*
X027730Y022588D01*
X027725Y022631D01*
X027716Y022673D01*
X027704Y022714D01*
X027688Y022754D01*
X027669Y022792D01*
X027646Y022828D01*
X027620Y022863D01*
X027591Y022894D01*
X027559Y022923D01*
X027525Y022949D01*
X027489Y022972D01*
X027450Y022991D01*
X027411Y023007D01*
X027369Y023020D01*
X023835Y025346D02*
X023894Y025308D01*
X023893Y025308D02*
X023841Y025224D01*
X023792Y025137D01*
X023748Y025048D01*
X023709Y024956D01*
X023674Y024863D01*
X023643Y024769D01*
X023617Y024673D01*
X023595Y024576D01*
X023579Y024477D01*
X023567Y024379D01*
X023559Y024279D01*
X023557Y024180D01*
X023559Y024081D01*
X023567Y023981D01*
X023579Y023883D01*
X023595Y023784D01*
X023617Y023687D01*
X023643Y023591D01*
X023674Y023497D01*
X023709Y023404D01*
X023748Y023312D01*
X023792Y023223D01*
X023841Y023136D01*
X023893Y023052D01*
X023835Y023014D01*
X023835Y023013D01*
X023780Y023101D01*
X023731Y023191D01*
X023685Y023283D01*
X023644Y023377D01*
X023608Y023473D01*
X023576Y023571D01*
X023549Y023671D01*
X023527Y023771D01*
X023509Y023872D01*
X023497Y023975D01*
X023489Y024077D01*
X023487Y024180D01*
X023489Y024283D01*
X023497Y024385D01*
X023509Y024488D01*
X023527Y024589D01*
X023549Y024689D01*
X023576Y024789D01*
X023608Y024887D01*
X023644Y024983D01*
X023685Y025077D01*
X023731Y025169D01*
X023780Y025259D01*
X023835Y025347D01*
X023842Y025342D01*
X023788Y025255D01*
X023738Y025165D01*
X023693Y025073D01*
X023652Y024979D01*
X023616Y024884D01*
X023584Y024786D01*
X023558Y024687D01*
X023535Y024587D01*
X023518Y024486D01*
X023506Y024385D01*
X023498Y024282D01*
X023496Y024180D01*
X023498Y024078D01*
X023506Y023975D01*
X023518Y023874D01*
X023535Y023773D01*
X023558Y023673D01*
X023584Y023574D01*
X023616Y023476D01*
X023652Y023381D01*
X023693Y023287D01*
X023738Y023195D01*
X023788Y023105D01*
X023842Y023018D01*
X023850Y023023D01*
X023796Y023110D01*
X023746Y023199D01*
X023701Y023290D01*
X023661Y023384D01*
X023624Y023479D01*
X023593Y023576D01*
X023566Y023675D01*
X023544Y023774D01*
X023527Y023875D01*
X023515Y023976D01*
X023507Y024078D01*
X023505Y024180D01*
X023507Y024282D01*
X023515Y024384D01*
X023527Y024485D01*
X023544Y024586D01*
X023566Y024685D01*
X023593Y024784D01*
X023624Y024881D01*
X023661Y024976D01*
X023701Y025070D01*
X023746Y025161D01*
X023796Y025250D01*
X023850Y025337D01*
X023857Y025332D01*
X023804Y025246D01*
X023754Y025157D01*
X023709Y025066D01*
X023669Y024973D01*
X023633Y024878D01*
X023602Y024781D01*
X023575Y024683D01*
X023553Y024584D01*
X023536Y024484D01*
X023524Y024383D01*
X023516Y024282D01*
X023514Y024180D01*
X023516Y024078D01*
X023524Y023977D01*
X023536Y023876D01*
X023553Y023776D01*
X023575Y023677D01*
X023602Y023579D01*
X023633Y023482D01*
X023669Y023387D01*
X023709Y023294D01*
X023754Y023203D01*
X023804Y023114D01*
X023857Y023028D01*
X023865Y023033D01*
X023811Y023119D01*
X023762Y023207D01*
X023718Y023298D01*
X023677Y023391D01*
X023641Y023485D01*
X023610Y023582D01*
X023584Y023679D01*
X023562Y023778D01*
X023545Y023878D01*
X023533Y023978D01*
X023525Y024079D01*
X023523Y024180D01*
X023525Y024281D01*
X023533Y024382D01*
X023545Y024482D01*
X023562Y024582D01*
X023584Y024681D01*
X023610Y024778D01*
X023641Y024875D01*
X023677Y024969D01*
X023718Y025062D01*
X023762Y025153D01*
X023811Y025241D01*
X023865Y025327D01*
X023872Y025322D01*
X023819Y025237D01*
X023770Y025149D01*
X023726Y025058D01*
X023686Y024966D01*
X023650Y024872D01*
X023619Y024776D01*
X023592Y024679D01*
X023571Y024580D01*
X023554Y024481D01*
X023542Y024381D01*
X023534Y024281D01*
X023532Y024180D01*
X023534Y024079D01*
X023542Y023979D01*
X023554Y023879D01*
X023571Y023780D01*
X023592Y023681D01*
X023619Y023584D01*
X023650Y023488D01*
X023686Y023394D01*
X023726Y023302D01*
X023770Y023211D01*
X023819Y023123D01*
X023872Y023038D01*
X023880Y023043D01*
X023827Y023128D01*
X023778Y023216D01*
X023734Y023306D01*
X023694Y023398D01*
X023658Y023491D01*
X023627Y023587D01*
X023601Y023683D01*
X023580Y023781D01*
X023563Y023880D01*
X023551Y023980D01*
X023543Y024080D01*
X023541Y024180D01*
X023543Y024280D01*
X023551Y024380D01*
X023563Y024480D01*
X023580Y024579D01*
X023601Y024677D01*
X023627Y024773D01*
X023658Y024869D01*
X023694Y024962D01*
X023734Y025054D01*
X023778Y025144D01*
X023827Y025232D01*
X023880Y025317D01*
X023887Y025312D01*
X023835Y025227D01*
X023786Y025140D01*
X023742Y025051D01*
X023702Y024959D01*
X023667Y024866D01*
X023636Y024771D01*
X023610Y024674D01*
X023588Y024577D01*
X023572Y024478D01*
X023560Y024379D01*
X023552Y024280D01*
X023550Y024180D01*
X023552Y024080D01*
X023560Y023981D01*
X023572Y023882D01*
X023588Y023783D01*
X023610Y023686D01*
X023636Y023589D01*
X023667Y023494D01*
X023702Y023401D01*
X023742Y023309D01*
X023786Y023220D01*
X023835Y023133D01*
X023887Y023048D01*
X023854Y023080D02*
X023871Y023012D01*
X023870Y023013D02*
X023830Y023001D01*
X023790Y022985D01*
X023753Y022966D01*
X023717Y022943D01*
X023683Y022918D01*
X023652Y022889D01*
X023624Y022858D01*
X023598Y022824D01*
X023575Y022789D01*
X023556Y022751D01*
X023540Y022712D01*
X023528Y022671D01*
X023520Y022630D01*
X023515Y022588D01*
X023514Y022546D01*
X023517Y022503D01*
X023524Y022462D01*
X023534Y022421D01*
X023548Y022381D01*
X023565Y022342D01*
X023586Y022305D01*
X023610Y022271D01*
X023637Y022238D01*
X023667Y022208D01*
X023700Y022181D01*
X023734Y022157D01*
X023771Y022136D01*
X023810Y022119D01*
X023850Y022105D01*
X023891Y022095D01*
X023932Y022088D01*
X023975Y022085D01*
X024017Y022086D01*
X024059Y022091D01*
X024100Y022099D01*
X024141Y022111D01*
X024180Y022127D01*
X024218Y022146D01*
X024253Y022169D01*
X024287Y022195D01*
X024318Y022223D01*
X024347Y022254D01*
X024372Y022288D01*
X024395Y022324D01*
X024414Y022361D01*
X024430Y022401D01*
X024442Y022441D01*
X024509Y022425D01*
X024510Y022425D01*
X024497Y022381D01*
X024480Y022339D01*
X024460Y022298D01*
X024437Y022258D01*
X024410Y022221D01*
X024380Y022187D01*
X024348Y022155D01*
X024313Y022125D01*
X024275Y022099D01*
X024236Y022076D01*
X024194Y022057D01*
X024151Y022041D01*
X024107Y022029D01*
X024062Y022021D01*
X024017Y022016D01*
X023971Y022015D01*
X023926Y022018D01*
X023881Y022025D01*
X023836Y022036D01*
X023793Y022050D01*
X023751Y022068D01*
X023711Y022090D01*
X023672Y022115D01*
X023636Y022143D01*
X023602Y022173D01*
X023572Y022207D01*
X023544Y022243D01*
X023519Y022282D01*
X023497Y022322D01*
X023479Y022364D01*
X023465Y022407D01*
X023454Y022452D01*
X023447Y022497D01*
X023444Y022542D01*
X023445Y022588D01*
X023450Y022633D01*
X023458Y022678D01*
X023470Y022722D01*
X023486Y022765D01*
X023505Y022807D01*
X023528Y022846D01*
X023554Y022884D01*
X023584Y022919D01*
X023616Y022951D01*
X023650Y022981D01*
X023687Y023008D01*
X023727Y023031D01*
X023768Y023051D01*
X023810Y023068D01*
X023854Y023081D01*
X023856Y023072D01*
X023813Y023059D01*
X023771Y023043D01*
X023731Y023023D01*
X023692Y023000D01*
X023656Y022974D01*
X023622Y022945D01*
X023590Y022913D01*
X023562Y022878D01*
X023536Y022841D01*
X023513Y022802D01*
X023494Y022762D01*
X023479Y022720D01*
X023467Y022676D01*
X023458Y022632D01*
X023454Y022587D01*
X023453Y022543D01*
X023456Y022498D01*
X023463Y022453D01*
X023474Y022410D01*
X023488Y022367D01*
X023505Y022326D01*
X023527Y022286D01*
X023551Y022248D01*
X023578Y022213D01*
X023609Y022180D01*
X023642Y022149D01*
X023677Y022122D01*
X023715Y022098D01*
X023755Y022076D01*
X023796Y022059D01*
X023839Y022045D01*
X023882Y022034D01*
X023927Y022027D01*
X023972Y022024D01*
X024016Y022025D01*
X024061Y022029D01*
X024105Y022038D01*
X024149Y022050D01*
X024191Y022065D01*
X024231Y022084D01*
X024270Y022107D01*
X024307Y022133D01*
X024342Y022161D01*
X024374Y022193D01*
X024403Y022227D01*
X024429Y022263D01*
X024452Y022302D01*
X024472Y022342D01*
X024488Y022384D01*
X024501Y022427D01*
X024492Y022429D01*
X024480Y022386D01*
X024463Y022344D01*
X024443Y022304D01*
X024420Y022265D01*
X024393Y022229D01*
X024363Y022195D01*
X024331Y022164D01*
X024296Y022135D01*
X024258Y022110D01*
X024219Y022088D01*
X024178Y022070D01*
X024135Y022055D01*
X024092Y022044D01*
X024047Y022037D01*
X024002Y022033D01*
X023957Y022034D01*
X023912Y022038D01*
X023868Y022046D01*
X023825Y022058D01*
X023782Y022074D01*
X023742Y022093D01*
X023703Y022116D01*
X023666Y022142D01*
X023631Y022171D01*
X023600Y022202D01*
X023571Y022237D01*
X023545Y022274D01*
X023522Y022313D01*
X023503Y022353D01*
X023487Y022396D01*
X023475Y022439D01*
X023467Y022483D01*
X023463Y022528D01*
X023462Y022573D01*
X023466Y022618D01*
X023473Y022663D01*
X023484Y022706D01*
X023499Y022749D01*
X023517Y022790D01*
X023539Y022829D01*
X023564Y022867D01*
X023593Y022902D01*
X023624Y022934D01*
X023658Y022964D01*
X023694Y022991D01*
X023733Y023014D01*
X023773Y023034D01*
X023815Y023051D01*
X023858Y023063D01*
X023860Y023055D01*
X023818Y023042D01*
X023777Y023026D01*
X023737Y023006D01*
X023699Y022983D01*
X023663Y022957D01*
X023630Y022928D01*
X023599Y022896D01*
X023572Y022861D01*
X023547Y022825D01*
X023525Y022786D01*
X023507Y022746D01*
X023493Y022704D01*
X023482Y022661D01*
X023475Y022617D01*
X023471Y022573D01*
X023472Y022529D01*
X023476Y022485D01*
X023484Y022441D01*
X023496Y022398D01*
X023511Y022357D01*
X023530Y022317D01*
X023552Y022279D01*
X023578Y022242D01*
X023606Y022209D01*
X023638Y022177D01*
X023671Y022149D01*
X023708Y022123D01*
X023746Y022101D01*
X023786Y022082D01*
X023827Y022067D01*
X023870Y022055D01*
X023914Y022047D01*
X023958Y022043D01*
X024002Y022042D01*
X024046Y022046D01*
X024090Y022053D01*
X024133Y022064D01*
X024175Y022078D01*
X024215Y022096D01*
X024254Y022118D01*
X024290Y022143D01*
X024325Y022170D01*
X024357Y022201D01*
X024386Y022234D01*
X024412Y022270D01*
X024435Y022308D01*
X024455Y022348D01*
X024471Y022389D01*
X024484Y022431D01*
X024475Y022433D01*
X024462Y022391D01*
X024446Y022349D01*
X024426Y022310D01*
X024403Y022272D01*
X024376Y022236D01*
X024346Y022203D01*
X024314Y022173D01*
X024279Y022146D01*
X024242Y022121D01*
X024203Y022100D01*
X024162Y022083D01*
X024120Y022069D01*
X024076Y022059D01*
X024032Y022053D01*
X023988Y022051D01*
X023944Y022053D01*
X023900Y022058D01*
X023856Y022068D01*
X023814Y022081D01*
X023773Y022098D01*
X023733Y022118D01*
X023696Y022142D01*
X023661Y022169D01*
X023628Y022199D01*
X023598Y022232D01*
X023571Y022267D01*
X023547Y022304D01*
X023527Y022344D01*
X023510Y022385D01*
X023497Y022427D01*
X023487Y022471D01*
X023482Y022515D01*
X023480Y022559D01*
X023482Y022603D01*
X023488Y022647D01*
X023498Y022691D01*
X023512Y022733D01*
X023529Y022774D01*
X023550Y022813D01*
X023575Y022850D01*
X023602Y022885D01*
X023632Y022917D01*
X023665Y022947D01*
X023701Y022974D01*
X023739Y022997D01*
X023778Y023017D01*
X023820Y023033D01*
X023862Y023046D01*
X023864Y023037D01*
X023823Y023025D01*
X023782Y023009D01*
X023743Y022989D01*
X023706Y022966D01*
X023671Y022940D01*
X023639Y022911D01*
X023609Y022879D01*
X023582Y022845D01*
X023558Y022808D01*
X023537Y022770D01*
X023520Y022730D01*
X023507Y022688D01*
X023497Y022646D01*
X023491Y022603D01*
X023489Y022559D01*
X023491Y022515D01*
X023496Y022472D01*
X023505Y022430D01*
X023518Y022388D01*
X023535Y022348D01*
X023555Y022309D01*
X023578Y022272D01*
X023605Y022237D01*
X023634Y022205D01*
X023666Y022176D01*
X023701Y022149D01*
X023738Y022126D01*
X023777Y022106D01*
X023817Y022089D01*
X023859Y022076D01*
X023901Y022067D01*
X023944Y022062D01*
X023988Y022060D01*
X024032Y022062D01*
X024075Y022068D01*
X024117Y022078D01*
X024159Y022091D01*
X024199Y022108D01*
X024237Y022129D01*
X024274Y022153D01*
X024308Y022180D01*
X024340Y022210D01*
X024369Y022242D01*
X024395Y022277D01*
X024418Y022314D01*
X024438Y022353D01*
X024454Y022394D01*
X024466Y022435D01*
X024457Y022437D01*
X024445Y022396D01*
X024429Y022357D01*
X024410Y022318D01*
X024388Y022282D01*
X024362Y022248D01*
X024333Y022216D01*
X024302Y022187D01*
X024269Y022160D01*
X024233Y022137D01*
X024195Y022117D01*
X024156Y022100D01*
X024115Y022087D01*
X024073Y022077D01*
X024031Y022071D01*
X023988Y022069D01*
X023945Y022071D01*
X023903Y022076D01*
X023861Y022085D01*
X023820Y022098D01*
X023780Y022114D01*
X023742Y022134D01*
X023706Y022157D01*
X023672Y022183D01*
X023641Y022212D01*
X023612Y022243D01*
X023586Y022277D01*
X023563Y022313D01*
X023543Y022351D01*
X023527Y022391D01*
X023514Y022432D01*
X023505Y022474D01*
X023500Y022516D01*
X023498Y022559D01*
X023500Y022602D01*
X023506Y022644D01*
X023516Y022686D01*
X023529Y022727D01*
X023546Y022766D01*
X023566Y022804D01*
X023589Y022840D01*
X023616Y022873D01*
X023645Y022904D01*
X023677Y022933D01*
X023711Y022959D01*
X023747Y022981D01*
X023786Y023000D01*
X023825Y023016D01*
X023866Y023028D01*
X023869Y023020D01*
X023827Y023007D01*
X023788Y022991D01*
X023749Y022972D01*
X023713Y022949D01*
X023679Y022923D01*
X023647Y022894D01*
X023618Y022863D01*
X023592Y022828D01*
X023569Y022792D01*
X023550Y022754D01*
X023534Y022714D01*
X023522Y022673D01*
X023513Y022631D01*
X023508Y022588D01*
X023507Y022545D01*
X023510Y022503D01*
X023517Y022460D01*
X023527Y022419D01*
X023541Y022378D01*
X023559Y022339D01*
X023580Y022302D01*
X023605Y022266D01*
X023632Y022234D01*
X023663Y022203D01*
X023695Y022176D01*
X023731Y022151D01*
X023768Y022130D01*
X023807Y022112D01*
X023848Y022098D01*
X023889Y022088D01*
X023932Y022081D01*
X023974Y022078D01*
X024017Y022079D01*
X024060Y022084D01*
X024102Y022093D01*
X024143Y022105D01*
X024183Y022121D01*
X024221Y022140D01*
X024257Y022163D01*
X024292Y022189D01*
X024323Y022218D01*
X024352Y022250D01*
X024378Y022284D01*
X024401Y022320D01*
X024420Y022359D01*
X024436Y022398D01*
X024449Y022440D01*
X026775Y025974D02*
X026737Y025915D01*
X026737Y025916D02*
X026653Y025968D01*
X026566Y026017D01*
X026477Y026061D01*
X026385Y026100D01*
X026292Y026135D01*
X026198Y026166D01*
X026102Y026192D01*
X026005Y026214D01*
X025906Y026230D01*
X025808Y026242D01*
X025708Y026250D01*
X025609Y026252D01*
X025510Y026250D01*
X025410Y026242D01*
X025312Y026230D01*
X025213Y026214D01*
X025116Y026192D01*
X025020Y026166D01*
X024926Y026135D01*
X024833Y026100D01*
X024741Y026061D01*
X024652Y026017D01*
X024565Y025968D01*
X024481Y025916D01*
X024443Y025974D01*
X024442Y025974D01*
X024530Y026029D01*
X024620Y026078D01*
X024712Y026124D01*
X024806Y026165D01*
X024902Y026201D01*
X025000Y026233D01*
X025100Y026260D01*
X025200Y026282D01*
X025301Y026300D01*
X025404Y026312D01*
X025506Y026320D01*
X025609Y026322D01*
X025712Y026320D01*
X025814Y026312D01*
X025917Y026300D01*
X026018Y026282D01*
X026118Y026260D01*
X026218Y026233D01*
X026316Y026201D01*
X026412Y026165D01*
X026506Y026124D01*
X026598Y026078D01*
X026688Y026029D01*
X026776Y025974D01*
X026771Y025967D01*
X026684Y026021D01*
X026594Y026071D01*
X026502Y026116D01*
X026408Y026157D01*
X026313Y026193D01*
X026215Y026225D01*
X026116Y026251D01*
X026016Y026274D01*
X025915Y026291D01*
X025814Y026303D01*
X025711Y026311D01*
X025609Y026313D01*
X025507Y026311D01*
X025404Y026303D01*
X025303Y026291D01*
X025202Y026274D01*
X025102Y026251D01*
X025003Y026225D01*
X024905Y026193D01*
X024810Y026157D01*
X024716Y026116D01*
X024624Y026071D01*
X024534Y026021D01*
X024447Y025967D01*
X024452Y025959D01*
X024539Y026013D01*
X024628Y026063D01*
X024719Y026108D01*
X024813Y026148D01*
X024908Y026185D01*
X025005Y026216D01*
X025104Y026243D01*
X025203Y026265D01*
X025304Y026282D01*
X025405Y026294D01*
X025507Y026302D01*
X025609Y026304D01*
X025711Y026302D01*
X025813Y026294D01*
X025914Y026282D01*
X026015Y026265D01*
X026114Y026243D01*
X026213Y026216D01*
X026310Y026185D01*
X026405Y026148D01*
X026499Y026108D01*
X026590Y026063D01*
X026679Y026013D01*
X026766Y025959D01*
X026761Y025952D01*
X026675Y026005D01*
X026586Y026055D01*
X026495Y026100D01*
X026402Y026140D01*
X026307Y026176D01*
X026210Y026207D01*
X026112Y026234D01*
X026013Y026256D01*
X025913Y026273D01*
X025812Y026285D01*
X025711Y026293D01*
X025609Y026295D01*
X025507Y026293D01*
X025406Y026285D01*
X025305Y026273D01*
X025205Y026256D01*
X025106Y026234D01*
X025008Y026207D01*
X024911Y026176D01*
X024816Y026140D01*
X024723Y026100D01*
X024632Y026055D01*
X024543Y026005D01*
X024457Y025952D01*
X024462Y025944D01*
X024548Y025998D01*
X024636Y026047D01*
X024727Y026091D01*
X024820Y026132D01*
X024914Y026168D01*
X025011Y026199D01*
X025108Y026225D01*
X025207Y026247D01*
X025307Y026264D01*
X025407Y026276D01*
X025508Y026284D01*
X025609Y026286D01*
X025710Y026284D01*
X025811Y026276D01*
X025911Y026264D01*
X026011Y026247D01*
X026110Y026225D01*
X026207Y026199D01*
X026304Y026168D01*
X026398Y026132D01*
X026491Y026091D01*
X026582Y026047D01*
X026670Y025998D01*
X026756Y025944D01*
X026751Y025937D01*
X026666Y025990D01*
X026578Y026039D01*
X026487Y026083D01*
X026395Y026123D01*
X026301Y026159D01*
X026205Y026190D01*
X026108Y026217D01*
X026009Y026238D01*
X025910Y026255D01*
X025810Y026267D01*
X025710Y026275D01*
X025609Y026277D01*
X025508Y026275D01*
X025408Y026267D01*
X025308Y026255D01*
X025209Y026238D01*
X025110Y026217D01*
X025013Y026190D01*
X024917Y026159D01*
X024823Y026123D01*
X024731Y026083D01*
X024640Y026039D01*
X024552Y025990D01*
X024467Y025937D01*
X024472Y025929D01*
X024557Y025982D01*
X024645Y026031D01*
X024735Y026075D01*
X024827Y026115D01*
X024920Y026151D01*
X025016Y026182D01*
X025112Y026208D01*
X025210Y026229D01*
X025309Y026246D01*
X025409Y026258D01*
X025509Y026266D01*
X025609Y026268D01*
X025709Y026266D01*
X025809Y026258D01*
X025909Y026246D01*
X026008Y026229D01*
X026106Y026208D01*
X026202Y026182D01*
X026298Y026151D01*
X026391Y026115D01*
X026483Y026075D01*
X026573Y026031D01*
X026661Y025982D01*
X026746Y025929D01*
X026741Y025922D01*
X026656Y025974D01*
X026569Y026023D01*
X026480Y026067D01*
X026388Y026107D01*
X026295Y026142D01*
X026200Y026173D01*
X026103Y026199D01*
X026006Y026221D01*
X025907Y026237D01*
X025808Y026249D01*
X025709Y026257D01*
X025609Y026259D01*
X025509Y026257D01*
X025410Y026249D01*
X025311Y026237D01*
X025212Y026221D01*
X025115Y026199D01*
X025018Y026173D01*
X024923Y026142D01*
X024830Y026107D01*
X024738Y026067D01*
X024649Y026023D01*
X024562Y025974D01*
X024477Y025922D01*
X024509Y025955D02*
X024441Y025938D01*
X024442Y025939D02*
X024430Y025979D01*
X024414Y026019D01*
X024395Y026056D01*
X024372Y026092D01*
X024347Y026126D01*
X024318Y026157D01*
X024287Y026185D01*
X024253Y026211D01*
X024218Y026234D01*
X024180Y026253D01*
X024141Y026269D01*
X024100Y026281D01*
X024059Y026289D01*
X024017Y026294D01*
X023975Y026295D01*
X023932Y026292D01*
X023891Y026285D01*
X023850Y026275D01*
X023810Y026261D01*
X023771Y026244D01*
X023734Y026223D01*
X023700Y026199D01*
X023667Y026172D01*
X023637Y026142D01*
X023610Y026109D01*
X023586Y026075D01*
X023565Y026038D01*
X023548Y025999D01*
X023534Y025959D01*
X023524Y025918D01*
X023517Y025877D01*
X023514Y025834D01*
X023515Y025792D01*
X023520Y025750D01*
X023528Y025709D01*
X023540Y025668D01*
X023556Y025629D01*
X023575Y025591D01*
X023598Y025556D01*
X023624Y025522D01*
X023652Y025491D01*
X023683Y025462D01*
X023717Y025437D01*
X023753Y025414D01*
X023790Y025395D01*
X023830Y025379D01*
X023870Y025367D01*
X023854Y025300D01*
X023854Y025299D01*
X023810Y025312D01*
X023768Y025329D01*
X023727Y025349D01*
X023687Y025372D01*
X023650Y025399D01*
X023616Y025429D01*
X023584Y025461D01*
X023554Y025496D01*
X023528Y025534D01*
X023505Y025573D01*
X023486Y025615D01*
X023470Y025658D01*
X023458Y025702D01*
X023450Y025747D01*
X023445Y025792D01*
X023444Y025838D01*
X023447Y025883D01*
X023454Y025928D01*
X023465Y025973D01*
X023479Y026016D01*
X023497Y026058D01*
X023519Y026098D01*
X023544Y026137D01*
X023572Y026173D01*
X023602Y026207D01*
X023636Y026237D01*
X023672Y026265D01*
X023711Y026290D01*
X023751Y026312D01*
X023793Y026330D01*
X023836Y026344D01*
X023881Y026355D01*
X023926Y026362D01*
X023971Y026365D01*
X024017Y026364D01*
X024062Y026359D01*
X024107Y026351D01*
X024151Y026339D01*
X024194Y026323D01*
X024236Y026304D01*
X024275Y026281D01*
X024313Y026255D01*
X024348Y026225D01*
X024380Y026193D01*
X024410Y026159D01*
X024437Y026122D01*
X024460Y026082D01*
X024480Y026041D01*
X024497Y025999D01*
X024510Y025955D01*
X024501Y025953D01*
X024488Y025996D01*
X024472Y026038D01*
X024452Y026078D01*
X024429Y026117D01*
X024403Y026153D01*
X024374Y026187D01*
X024342Y026219D01*
X024307Y026247D01*
X024270Y026273D01*
X024231Y026296D01*
X024191Y026315D01*
X024149Y026330D01*
X024105Y026342D01*
X024061Y026351D01*
X024016Y026355D01*
X023972Y026356D01*
X023927Y026353D01*
X023882Y026346D01*
X023839Y026335D01*
X023796Y026321D01*
X023755Y026304D01*
X023715Y026282D01*
X023677Y026258D01*
X023642Y026231D01*
X023609Y026200D01*
X023578Y026167D01*
X023551Y026132D01*
X023527Y026094D01*
X023505Y026054D01*
X023488Y026013D01*
X023474Y025970D01*
X023463Y025927D01*
X023456Y025882D01*
X023453Y025837D01*
X023454Y025793D01*
X023458Y025748D01*
X023467Y025704D01*
X023479Y025660D01*
X023494Y025618D01*
X023513Y025578D01*
X023536Y025539D01*
X023562Y025502D01*
X023590Y025467D01*
X023622Y025435D01*
X023656Y025406D01*
X023692Y025380D01*
X023731Y025357D01*
X023771Y025337D01*
X023813Y025321D01*
X023856Y025308D01*
X023858Y025317D01*
X023815Y025329D01*
X023773Y025346D01*
X023733Y025366D01*
X023694Y025389D01*
X023658Y025416D01*
X023624Y025446D01*
X023593Y025478D01*
X023564Y025513D01*
X023539Y025551D01*
X023517Y025590D01*
X023499Y025631D01*
X023484Y025674D01*
X023473Y025717D01*
X023466Y025762D01*
X023462Y025807D01*
X023463Y025852D01*
X023467Y025897D01*
X023475Y025941D01*
X023487Y025984D01*
X023503Y026027D01*
X023522Y026067D01*
X023545Y026106D01*
X023571Y026143D01*
X023600Y026178D01*
X023631Y026209D01*
X023666Y026238D01*
X023703Y026264D01*
X023742Y026287D01*
X023782Y026306D01*
X023825Y026322D01*
X023868Y026334D01*
X023912Y026342D01*
X023957Y026346D01*
X024002Y026347D01*
X024047Y026343D01*
X024092Y026336D01*
X024135Y026325D01*
X024178Y026310D01*
X024219Y026292D01*
X024258Y026270D01*
X024296Y026245D01*
X024331Y026216D01*
X024363Y026185D01*
X024393Y026151D01*
X024420Y026115D01*
X024443Y026076D01*
X024463Y026036D01*
X024480Y025994D01*
X024492Y025951D01*
X024484Y025949D01*
X024471Y025991D01*
X024455Y026032D01*
X024435Y026072D01*
X024412Y026110D01*
X024386Y026146D01*
X024357Y026179D01*
X024325Y026210D01*
X024290Y026237D01*
X024254Y026262D01*
X024215Y026284D01*
X024175Y026302D01*
X024133Y026316D01*
X024090Y026327D01*
X024046Y026334D01*
X024002Y026338D01*
X023958Y026337D01*
X023914Y026333D01*
X023870Y026325D01*
X023827Y026313D01*
X023786Y026298D01*
X023746Y026279D01*
X023708Y026257D01*
X023671Y026231D01*
X023638Y026203D01*
X023606Y026171D01*
X023578Y026138D01*
X023552Y026101D01*
X023530Y026063D01*
X023511Y026023D01*
X023496Y025982D01*
X023484Y025939D01*
X023476Y025895D01*
X023472Y025851D01*
X023471Y025807D01*
X023475Y025763D01*
X023482Y025719D01*
X023493Y025676D01*
X023507Y025634D01*
X023525Y025594D01*
X023547Y025555D01*
X023572Y025519D01*
X023599Y025484D01*
X023630Y025452D01*
X023663Y025423D01*
X023699Y025397D01*
X023737Y025374D01*
X023777Y025354D01*
X023818Y025338D01*
X023860Y025325D01*
X023862Y025334D01*
X023820Y025347D01*
X023778Y025363D01*
X023739Y025383D01*
X023701Y025406D01*
X023665Y025433D01*
X023632Y025463D01*
X023602Y025495D01*
X023575Y025530D01*
X023550Y025567D01*
X023529Y025606D01*
X023512Y025647D01*
X023498Y025689D01*
X023488Y025733D01*
X023482Y025777D01*
X023480Y025821D01*
X023482Y025865D01*
X023487Y025909D01*
X023497Y025953D01*
X023510Y025995D01*
X023527Y026036D01*
X023547Y026076D01*
X023571Y026113D01*
X023598Y026148D01*
X023628Y026181D01*
X023661Y026211D01*
X023696Y026238D01*
X023733Y026262D01*
X023773Y026282D01*
X023814Y026299D01*
X023856Y026312D01*
X023900Y026322D01*
X023944Y026327D01*
X023988Y026329D01*
X024032Y026327D01*
X024076Y026321D01*
X024120Y026311D01*
X024162Y026297D01*
X024203Y026280D01*
X024242Y026259D01*
X024279Y026234D01*
X024314Y026207D01*
X024346Y026177D01*
X024376Y026144D01*
X024403Y026108D01*
X024426Y026070D01*
X024446Y026031D01*
X024462Y025989D01*
X024475Y025947D01*
X024466Y025945D01*
X024454Y025986D01*
X024438Y026027D01*
X024418Y026066D01*
X024395Y026103D01*
X024369Y026138D01*
X024340Y026170D01*
X024308Y026200D01*
X024274Y026227D01*
X024237Y026251D01*
X024199Y026272D01*
X024159Y026289D01*
X024117Y026302D01*
X024075Y026312D01*
X024032Y026318D01*
X023988Y026320D01*
X023944Y026318D01*
X023901Y026313D01*
X023859Y026304D01*
X023817Y026291D01*
X023777Y026274D01*
X023738Y026254D01*
X023701Y026231D01*
X023666Y026204D01*
X023634Y026175D01*
X023605Y026143D01*
X023578Y026108D01*
X023555Y026071D01*
X023535Y026032D01*
X023518Y025992D01*
X023505Y025950D01*
X023496Y025908D01*
X023491Y025865D01*
X023489Y025821D01*
X023491Y025777D01*
X023497Y025734D01*
X023507Y025692D01*
X023520Y025650D01*
X023537Y025610D01*
X023558Y025572D01*
X023582Y025535D01*
X023609Y025501D01*
X023639Y025469D01*
X023671Y025440D01*
X023706Y025414D01*
X023743Y025391D01*
X023782Y025371D01*
X023823Y025355D01*
X023864Y025343D01*
X023866Y025352D01*
X023825Y025364D01*
X023786Y025380D01*
X023747Y025399D01*
X023711Y025421D01*
X023677Y025447D01*
X023645Y025476D01*
X023616Y025507D01*
X023589Y025540D01*
X023566Y025576D01*
X023546Y025614D01*
X023529Y025653D01*
X023516Y025694D01*
X023506Y025736D01*
X023500Y025778D01*
X023498Y025821D01*
X023500Y025864D01*
X023505Y025906D01*
X023514Y025948D01*
X023527Y025989D01*
X023543Y026029D01*
X023563Y026067D01*
X023586Y026103D01*
X023612Y026137D01*
X023641Y026168D01*
X023672Y026197D01*
X023706Y026223D01*
X023742Y026246D01*
X023780Y026266D01*
X023820Y026282D01*
X023861Y026295D01*
X023903Y026304D01*
X023945Y026309D01*
X023988Y026311D01*
X024031Y026309D01*
X024073Y026303D01*
X024115Y026293D01*
X024156Y026280D01*
X024195Y026263D01*
X024233Y026243D01*
X024269Y026220D01*
X024302Y026193D01*
X024333Y026164D01*
X024362Y026132D01*
X024388Y026098D01*
X024410Y026062D01*
X024429Y026023D01*
X024445Y025984D01*
X024457Y025943D01*
X024449Y025940D01*
X024436Y025982D01*
X024420Y026021D01*
X024401Y026060D01*
X024378Y026096D01*
X024352Y026130D01*
X024323Y026162D01*
X024292Y026191D01*
X024257Y026217D01*
X024221Y026240D01*
X024183Y026259D01*
X024143Y026275D01*
X024102Y026287D01*
X024060Y026296D01*
X024017Y026301D01*
X023974Y026302D01*
X023932Y026299D01*
X023889Y026292D01*
X023848Y026282D01*
X023807Y026268D01*
X023768Y026250D01*
X023731Y026229D01*
X023695Y026204D01*
X023663Y026177D01*
X023632Y026146D01*
X023605Y026114D01*
X023580Y026078D01*
X023559Y026041D01*
X023541Y026002D01*
X023527Y025961D01*
X023517Y025920D01*
X023510Y025877D01*
X023507Y025835D01*
X023508Y025792D01*
X023513Y025749D01*
X023522Y025707D01*
X023534Y025666D01*
X023550Y025626D01*
X023569Y025588D01*
X023592Y025552D01*
X023618Y025517D01*
X023647Y025486D01*
X023679Y025457D01*
X023713Y025431D01*
X023749Y025408D01*
X023788Y025389D01*
X023827Y025373D01*
X023869Y025360D01*
X027402Y023034D02*
X027343Y023072D01*
X027344Y023072D02*
X027395Y023156D01*
X027442Y023242D01*
X027486Y023331D01*
X027524Y023421D01*
X027559Y023513D01*
X027589Y023607D01*
X027615Y023702D01*
X027636Y023798D01*
X027652Y023896D01*
X027664Y023993D01*
X027671Y024092D01*
X027673Y024190D01*
X027671Y024288D01*
X027664Y024387D01*
X027652Y024484D01*
X027636Y024582D01*
X027615Y024678D01*
X027589Y024773D01*
X027559Y024867D01*
X027524Y024959D01*
X027486Y025049D01*
X027442Y025138D01*
X027395Y025224D01*
X027344Y025308D01*
X027402Y025346D01*
X027403Y025346D01*
X027456Y025259D01*
X027505Y025170D01*
X027549Y025079D01*
X027589Y024985D01*
X027625Y024890D01*
X027656Y024793D01*
X027683Y024694D01*
X027704Y024595D01*
X027721Y024494D01*
X027733Y024393D01*
X027741Y024292D01*
X027743Y024190D01*
X027741Y024088D01*
X027733Y023987D01*
X027721Y023886D01*
X027704Y023785D01*
X027683Y023686D01*
X027656Y023587D01*
X027625Y023490D01*
X027589Y023395D01*
X027549Y023301D01*
X027505Y023210D01*
X027456Y023121D01*
X027403Y023034D01*
X027395Y023039D01*
X027448Y023125D01*
X027497Y023214D01*
X027541Y023305D01*
X027581Y023398D01*
X027617Y023493D01*
X027647Y023590D01*
X027674Y023688D01*
X027695Y023787D01*
X027712Y023887D01*
X027724Y023987D01*
X027732Y024089D01*
X027734Y024190D01*
X027732Y024291D01*
X027724Y024393D01*
X027712Y024493D01*
X027695Y024593D01*
X027674Y024692D01*
X027647Y024790D01*
X027617Y024887D01*
X027581Y024982D01*
X027541Y025075D01*
X027497Y025166D01*
X027448Y025255D01*
X027395Y025341D01*
X027387Y025337D01*
X027440Y025250D01*
X027489Y025162D01*
X027533Y025071D01*
X027573Y024978D01*
X027608Y024884D01*
X027639Y024788D01*
X027665Y024690D01*
X027687Y024591D01*
X027703Y024492D01*
X027715Y024392D01*
X027723Y024291D01*
X027725Y024190D01*
X027723Y024089D01*
X027715Y023988D01*
X027703Y023888D01*
X027687Y023789D01*
X027665Y023690D01*
X027639Y023592D01*
X027608Y023496D01*
X027573Y023402D01*
X027533Y023309D01*
X027489Y023218D01*
X027440Y023130D01*
X027387Y023043D01*
X027380Y023048D01*
X027432Y023134D01*
X027481Y023222D01*
X027525Y023313D01*
X027564Y023405D01*
X027600Y023499D01*
X027630Y023595D01*
X027656Y023692D01*
X027678Y023790D01*
X027694Y023889D01*
X027706Y023989D01*
X027714Y024089D01*
X027716Y024190D01*
X027714Y024291D01*
X027706Y024391D01*
X027694Y024491D01*
X027678Y024590D01*
X027656Y024688D01*
X027630Y024785D01*
X027600Y024881D01*
X027564Y024975D01*
X027525Y025067D01*
X027481Y025158D01*
X027432Y025246D01*
X027380Y025332D01*
X027372Y025327D01*
X027425Y025241D01*
X027473Y025154D01*
X027516Y025064D01*
X027556Y024972D01*
X027591Y024878D01*
X027622Y024783D01*
X027648Y024686D01*
X027669Y024588D01*
X027686Y024489D01*
X027697Y024390D01*
X027705Y024290D01*
X027707Y024190D01*
X027705Y024090D01*
X027697Y023990D01*
X027686Y023891D01*
X027669Y023792D01*
X027648Y023694D01*
X027622Y023597D01*
X027591Y023502D01*
X027556Y023408D01*
X027516Y023316D01*
X027473Y023226D01*
X027425Y023139D01*
X027372Y023053D01*
X027365Y023058D01*
X027417Y023143D01*
X027465Y023231D01*
X027508Y023320D01*
X027548Y023412D01*
X027583Y023505D01*
X027613Y023600D01*
X027639Y023696D01*
X027660Y023794D01*
X027677Y023892D01*
X027688Y023991D01*
X027696Y024090D01*
X027698Y024190D01*
X027696Y024290D01*
X027688Y024389D01*
X027677Y024488D01*
X027660Y024586D01*
X027639Y024684D01*
X027613Y024780D01*
X027583Y024875D01*
X027548Y024968D01*
X027508Y025060D01*
X027465Y025149D01*
X027417Y025237D01*
X027365Y025322D01*
X027357Y025317D01*
X027409Y025232D01*
X027457Y025145D01*
X027500Y025056D01*
X027539Y024965D01*
X027574Y024872D01*
X027604Y024777D01*
X027630Y024682D01*
X027651Y024585D01*
X027668Y024487D01*
X027680Y024388D01*
X027687Y024289D01*
X027689Y024190D01*
X027687Y024091D01*
X027680Y023992D01*
X027668Y023893D01*
X027651Y023795D01*
X027630Y023698D01*
X027604Y023603D01*
X027574Y023508D01*
X027539Y023415D01*
X027500Y023324D01*
X027457Y023235D01*
X027409Y023148D01*
X027357Y023063D01*
X027350Y023068D01*
X027401Y023152D01*
X027449Y023239D01*
X027492Y023328D01*
X027531Y023419D01*
X027566Y023511D01*
X027596Y023605D01*
X027621Y023701D01*
X027642Y023797D01*
X027659Y023895D01*
X027671Y023993D01*
X027678Y024091D01*
X027680Y024190D01*
X027678Y024289D01*
X027671Y024387D01*
X027659Y024485D01*
X027642Y024583D01*
X027621Y024679D01*
X027596Y024775D01*
X027566Y024869D01*
X027531Y024961D01*
X027492Y025052D01*
X027449Y025141D01*
X027401Y025228D01*
X027350Y025312D01*
D16*
X028021Y025824D02*
X028019Y025879D01*
X028013Y025933D01*
X028003Y025987D01*
X027990Y026040D01*
X027973Y026092D01*
X027952Y026143D01*
X027927Y026192D01*
X027899Y026239D01*
X027868Y026284D01*
X027833Y026327D01*
X027796Y026367D01*
X027756Y026404D01*
X027713Y026439D01*
X027668Y026470D01*
X027621Y026498D01*
X027572Y026523D01*
X027521Y026544D01*
X027469Y026561D01*
X027416Y026574D01*
X027362Y026584D01*
X027308Y026590D01*
X027253Y026592D01*
X028021Y025824D02*
X028021Y022556D01*
X028019Y022501D01*
X028013Y022447D01*
X028003Y022393D01*
X027990Y022340D01*
X027973Y022288D01*
X027952Y022237D01*
X027927Y022188D01*
X027899Y022141D01*
X027868Y022096D01*
X027833Y022053D01*
X027796Y022013D01*
X027756Y021976D01*
X027713Y021941D01*
X027668Y021910D01*
X027621Y021882D01*
X027572Y021857D01*
X027521Y021836D01*
X027469Y021819D01*
X027416Y021806D01*
X027362Y021796D01*
X027308Y021790D01*
X027253Y021788D01*
X027253Y021789D02*
X023985Y021789D01*
X023985Y021788D02*
X023930Y021790D01*
X023876Y021796D01*
X023822Y021806D01*
X023769Y021819D01*
X023717Y021836D01*
X023666Y021857D01*
X023617Y021882D01*
X023570Y021910D01*
X023525Y021941D01*
X023482Y021976D01*
X023442Y022013D01*
X023405Y022053D01*
X023370Y022096D01*
X023339Y022141D01*
X023311Y022188D01*
X023286Y022237D01*
X023265Y022288D01*
X023248Y022340D01*
X023235Y022393D01*
X023225Y022447D01*
X023219Y022501D01*
X023217Y022556D01*
X023218Y022556D02*
X023218Y025824D01*
X023217Y025824D02*
X023219Y025879D01*
X023225Y025933D01*
X023235Y025987D01*
X023248Y026040D01*
X023265Y026092D01*
X023286Y026143D01*
X023311Y026192D01*
X023339Y026239D01*
X023370Y026284D01*
X023405Y026327D01*
X023442Y026367D01*
X023482Y026404D01*
X023525Y026439D01*
X023570Y026470D01*
X023617Y026498D01*
X023666Y026523D01*
X023717Y026544D01*
X023769Y026561D01*
X023822Y026574D01*
X023876Y026584D01*
X023930Y026590D01*
X023985Y026592D01*
X023847Y024190D02*
X023849Y024277D01*
X023856Y024364D01*
X023866Y024450D01*
X023881Y024536D01*
X023900Y024621D01*
X023923Y024704D01*
X023951Y024787D01*
X023982Y024868D01*
X024017Y024948D01*
X024056Y025025D01*
X024099Y025101D01*
X024146Y025174D01*
X024196Y025246D01*
X024249Y025314D01*
X024306Y025380D01*
X024366Y025443D01*
X024429Y025503D01*
X024495Y025560D01*
X024563Y025613D01*
X024635Y025663D01*
X024708Y025710D01*
X024784Y025753D01*
X024861Y025792D01*
X024941Y025827D01*
X025022Y025858D01*
X025105Y025886D01*
X025188Y025909D01*
X025273Y025928D01*
X025359Y025943D01*
X025445Y025953D01*
X025532Y025960D01*
X025619Y025962D01*
X025706Y025960D01*
X025793Y025953D01*
X025879Y025943D01*
X025965Y025928D01*
X026050Y025909D01*
X026133Y025886D01*
X026216Y025858D01*
X026297Y025827D01*
X026377Y025792D01*
X026454Y025753D01*
X026530Y025710D01*
X026603Y025663D01*
X026675Y025613D01*
X026743Y025560D01*
X026809Y025503D01*
X026872Y025443D01*
X026932Y025380D01*
X026989Y025314D01*
X027042Y025246D01*
X027092Y025174D01*
X027139Y025101D01*
X027182Y025025D01*
X027221Y024948D01*
X027256Y024868D01*
X027287Y024787D01*
X027315Y024704D01*
X027338Y024621D01*
X027357Y024536D01*
X027372Y024450D01*
X027382Y024364D01*
X027389Y024277D01*
X027391Y024190D01*
X027389Y024103D01*
X027382Y024016D01*
X027372Y023930D01*
X027357Y023844D01*
X027338Y023759D01*
X027315Y023676D01*
X027287Y023593D01*
X027256Y023512D01*
X027221Y023432D01*
X027182Y023355D01*
X027139Y023279D01*
X027092Y023206D01*
X027042Y023134D01*
X026989Y023066D01*
X026932Y023000D01*
X026872Y022937D01*
X026809Y022877D01*
X026743Y022820D01*
X026675Y022767D01*
X026603Y022717D01*
X026530Y022670D01*
X026454Y022627D01*
X026377Y022588D01*
X026297Y022553D01*
X026216Y022522D01*
X026133Y022494D01*
X026050Y022471D01*
X025965Y022452D01*
X025879Y022437D01*
X025793Y022427D01*
X025706Y022420D01*
X025619Y022418D01*
X025532Y022420D01*
X025445Y022427D01*
X025359Y022437D01*
X025273Y022452D01*
X025188Y022471D01*
X025105Y022494D01*
X025022Y022522D01*
X024941Y022553D01*
X024861Y022588D01*
X024784Y022627D01*
X024708Y022670D01*
X024635Y022717D01*
X024563Y022767D01*
X024495Y022820D01*
X024429Y022877D01*
X024366Y022937D01*
X024306Y023000D01*
X024249Y023066D01*
X024196Y023134D01*
X024146Y023206D01*
X024099Y023279D01*
X024056Y023355D01*
X024017Y023432D01*
X023982Y023512D01*
X023951Y023593D01*
X023923Y023676D01*
X023900Y023759D01*
X023881Y023844D01*
X023866Y023930D01*
X023856Y024016D01*
X023849Y024103D01*
X023847Y024190D01*
D17*
X022850Y019918D02*
X022813Y019918D01*
X022850Y019918D02*
X022850Y019280D01*
X022813Y019280D01*
X022496Y019280D02*
X022085Y019280D01*
X021767Y019280D02*
X021730Y019280D01*
X021730Y019918D01*
X021767Y019918D01*
X022085Y019918D02*
X022122Y019918D01*
X022459Y019918D02*
X022496Y019918D01*
X030509Y037509D02*
X009709Y037509D01*
X009709Y039609D01*
X009753Y039611D01*
X009796Y039617D01*
X009838Y039626D01*
X009880Y039639D01*
X009920Y039656D01*
X009959Y039676D01*
X009996Y039699D01*
X010030Y039726D01*
X010063Y039755D01*
X010092Y039788D01*
X010119Y039822D01*
X010142Y039859D01*
X010162Y039898D01*
X010179Y039938D01*
X010192Y039980D01*
X010201Y040022D01*
X010207Y040065D01*
X010209Y040109D01*
X010207Y040153D01*
X010201Y040196D01*
X010192Y040238D01*
X010179Y040280D01*
X010162Y040320D01*
X010142Y040359D01*
X010119Y040396D01*
X010092Y040430D01*
X010063Y040463D01*
X010030Y040492D01*
X009996Y040519D01*
X009959Y040542D01*
X009920Y040562D01*
X009880Y040579D01*
X009838Y040592D01*
X009796Y040601D01*
X009753Y040607D01*
X009709Y040609D01*
X009709Y042709D01*
X030509Y042709D01*
X030509Y037509D01*
D18*
X022409Y027509D02*
X019409Y027509D01*
X010409Y027509D02*
X007409Y027509D01*
X029769Y022490D02*
X029769Y019740D01*
X029769Y010240D02*
X029769Y007490D01*
D19*
X029769Y016990D02*
X029769Y017990D01*
X029269Y017490D02*
X030269Y017490D01*
X018409Y027509D02*
X017409Y027509D01*
X017909Y028009D02*
X017909Y027009D01*
D20*
X017731Y040364D02*
X018151Y040364D01*
X017731Y040784D01*
X017731Y040890D01*
X017836Y040995D01*
X018046Y040995D01*
X018151Y040890D01*
X018376Y040890D02*
X018376Y040784D01*
X018481Y040679D01*
X018376Y040574D01*
X018376Y040469D01*
X018481Y040364D01*
X018691Y040364D01*
X018796Y040469D01*
X019020Y040364D02*
X019020Y040784D01*
X019230Y040995D01*
X019440Y040784D01*
X019440Y040364D01*
X019665Y040469D02*
X019665Y040679D01*
X019875Y040679D01*
X020085Y040469D02*
X019980Y040364D01*
X019770Y040364D01*
X019665Y040469D01*
X019440Y040679D02*
X019020Y040679D01*
X018796Y040890D02*
X018691Y040995D01*
X018481Y040995D01*
X018376Y040890D01*
X018481Y040679D02*
X018586Y040679D01*
X017507Y040679D02*
X017086Y040679D01*
X016862Y040574D02*
X016547Y040574D01*
X016442Y040679D01*
X016442Y040890D01*
X016547Y040995D01*
X016862Y040995D01*
X016862Y040364D01*
X019665Y040890D02*
X019770Y040995D01*
X019980Y040995D01*
X020085Y040890D01*
X020085Y040469D01*
X020309Y040364D02*
X020730Y040364D01*
X020730Y040995D01*
X020309Y040995D01*
X020519Y040679D02*
X020730Y040679D01*
X020954Y040364D02*
X020954Y040995D01*
X021164Y040784D01*
X021374Y040995D01*
X021374Y040364D01*
X009574Y040435D02*
X009574Y040855D01*
X009154Y040435D01*
X009049Y040435D01*
X008944Y040540D01*
X008944Y040750D01*
X009049Y040855D01*
X008944Y041290D02*
X009574Y041290D01*
X009574Y041500D02*
X009574Y041080D01*
X009154Y041500D02*
X008944Y041290D01*
X009049Y041724D02*
X008944Y041829D01*
X008944Y042039D01*
X009049Y042144D01*
X009469Y042144D01*
X009574Y042039D01*
X009574Y041829D01*
X009469Y041724D01*
X009574Y042364D02*
X009574Y042574D01*
X009574Y042469D02*
X008944Y042469D01*
X008944Y042574D02*
X008944Y042364D01*
M02*
